<svg id="icons8-instagram" xmlns="http://www.w3.org/2000/svg" xmlns:xlink="http://www.w3.org/1999/xlink" width="11.48" height="11.679" viewBox="0 0 11.48 11.679">
  <defs>
    <radialGradient id="radial-gradient" cx="0.372" cy="1.001" r="1.247" gradientUnits="objectBoundingBox">
      <stop offset="0" stop-color="#fd5"/>
      <stop offset="0.328" stop-color="#ff543f"/>
      <stop offset="0.348" stop-color="#fc5245"/>
      <stop offset="0.504" stop-color="#e64771"/>
      <stop offset="0.643" stop-color="#d53e91"/>
      <stop offset="0.761" stop-color="#cc39a4"/>
      <stop offset="0.841" stop-color="#c837ab"/>
    </radialGradient>
    <radialGradient id="radial-gradient-2" cx="0.161" cy="-0.012" r="0.828" gradientUnits="objectBoundingBox">
      <stop offset="0" stop-color="#4168c9"/>
      <stop offset="0.999" stop-color="#4168c9" stop-opacity="0"/>
    </radialGradient>
  </defs>
  <path id="Path_103" data-name="Path 103" d="M14.923,17.663l-6.374.006A2.58,2.58,0,0,1,6,15.078L5.99,8.593A2.58,2.58,0,0,1,8.537,6l6.374-.006a2.58,2.58,0,0,1,2.552,2.591l.006,6.485A2.579,2.579,0,0,1,14.923,17.663Z" transform="translate(-5.99 -5.99)" fill="url(#radial-gradient)"/>
  <path id="Path_104" data-name="Path 104" d="M14.923,17.663l-6.374.006A2.58,2.58,0,0,1,6,15.078L5.99,8.593A2.58,2.58,0,0,1,8.537,6l6.374-.006a2.58,2.58,0,0,1,2.552,2.591l.006,6.485A2.579,2.579,0,0,1,14.923,17.663Z" transform="translate(-5.99 -5.99)" fill="url(#radial-gradient-2)"/>
  <path id="Path_105" data-name="Path 105" d="M19.231,21.462a2.231,2.231,0,1,1,2.231-2.231A2.234,2.234,0,0,1,19.231,21.462Zm0-3.825a1.594,1.594,0,1,0,1.594,1.594A1.6,1.6,0,0,0,19.231,17.637Z" transform="translate(-13.491 -13.391)" fill="#fff"/>
  <ellipse id="Ellipse_3" data-name="Ellipse 3" cx="0.478" cy="0.478" rx="0.478" ry="0.478" transform="translate(7.653 2.926)" fill="#fff"/>
  <path id="Path_106" data-name="Path 106" d="M17.056,19.486H13.231A2.261,2.261,0,0,1,11,17.2V13.285A2.261,2.261,0,0,1,13.231,11h3.825a2.261,2.261,0,0,1,2.231,2.285V17.2A2.261,2.261,0,0,1,17.056,19.486Zm-3.825-7.833a1.615,1.615,0,0,0-1.594,1.632V17.2a1.615,1.615,0,0,0,1.594,1.632h3.825A1.615,1.615,0,0,0,18.649,17.2V13.285a1.615,1.615,0,0,0-1.594-1.632Z" transform="translate(-9.403 -9.403)" fill="#fff"/>
</svg>
