<svg id="koo" xmlns="http://www.w3.org/2000/svg" width="9.349" height="13.413" viewBox="0 0 9.349 13.413">
  <path id="Path_125" data-name="Path 125" d="M7.762,9.475l.2-.224.492-.581.76-.425.134-.224.134-.38V7.329l.224-.246.134-.313h.268l.492.246.312.536.045.626.737.4.426.313.38.492.447,1.051.179.671.112.8.112.76.38.336.2.581.2.559.067.6-.268.536-.38.357-.492.089-.09.4-.224.559-.469.559-.514.447-.692.268-.782.2H9.014l-.939-.112L7,17.7l-.626-.313-.447-.314-.313-.245-.313-.38-.223-.313.09-.469.38-.224v-.335l.156-.536.313-.626.29-.514.29-.425.29-.268.224-.157V12.2l.067-.447.067-.715.134-.6.179-.559Z" transform="translate(-4.946 -6.591)" fill="#facd00"/>
  <path id="Path_125_-_Outline" data-name="Path 125 - Outline" d="M9.315,6.27h.28l.5.249.316.543v0l.044.619.732.4.428.314h0l.381.493v0l.447,1.051h0l.179.671h0l.112.8.111.755.379.335v0l.2.581.2.56.068.608-.271.542,0,0-.383.36-.487.089-.088.395h0l-.224.561-.471.561h0l-.516.448-.695.269h0l-.784.2H8.5l-.94-.112h0L6.48,17.225h0l-.627-.313h0L5.4,16.6l-.314-.246h0l-.314-.381-.227-.317.092-.481.379-.223v-.331l.157-.538h0l.313-.627.291-.515.291-.426h0l.291-.269h0l.218-.153v-.374h0l.067-.447.067-.716h0l.134-.6.179-.56h0l.2-.4.2-.225.493-.582h0l.757-.423.131-.219.133-.377V6.837l.226-.248Zm.274.026H9.332L9.2,6.6v0l-.22.242v.312l-.135.381-.136.228,0,0-.758.424-.49.579L7.256,9l-.2.4-.178.557-.134.6-.067.715-.067.446V12.1l-.229.16-.289.267-.289.423-.29.513-.312.625-.155.534v.341l-.381.224-.087.458.22.308.312.378.311.244.446.313.624.312,1.071.357.937.112H9.77l.78-.2.689-.267.512-.445.467-.557.222-.556.091-.41.5-.09.375-.353.265-.531-.066-.6-.2-.557-.2-.578-.381-.337-.112-.765-.112-.8-.179-.669L11.972,8.9l-.378-.489L11.171,8.1,10.428,7.7l-.045-.63-.309-.53Z" transform="translate(-4.429 -6.104)"/>
  <path id="Path_126" data-name="Path 126" d="M9.339,7.713V7.7a3.2,3.2,0,0,0-.414-1.277,2.17,2.17,0,0,0-.216-.306A.327.327,0,0,0,8.475,6c0-.026-.005-.055-.008-.082-.016-.169-.034-.335-.053-.5-.005-.04-.01-.079-.014-.12l-.011-.086a.07.07,0,0,0,0-.026c0-.019,0-.038-.007-.058a.22.22,0,0,0,0-.032c0-.017-.005-.035-.007-.053s0-.022-.005-.033-.005-.034-.008-.05,0-.021,0-.032S8.344,4.9,8.34,4.881a.155.155,0,0,0,0-.029l-.01-.062a.127.127,0,0,0,0-.018c0-.026-.009-.053-.014-.079l0-.022c0-.019-.007-.037-.01-.056l0-.026c0-.016-.006-.032-.01-.048s0-.02-.006-.03l-.009-.045c0-.01,0-.02-.006-.03s-.007-.031-.01-.045,0-.018-.006-.028l-.012-.051a.117.117,0,0,0,0-.022l-.017-.07,0-.011c-.005-.02-.009-.039-.014-.058l-.007-.025-.011-.045-.007-.026c0-.014-.008-.026-.011-.041a.244.244,0,0,0-.008-.026c0-.008-.008-.026-.011-.04s-.006-.017-.008-.026L8.117,3.88,8.11,3.856,8.094,3.8a.015.015,0,0,0,0-.011l-.02-.062L8.064,3.71c-.005-.014-.01-.028-.014-.041l-.008-.024-.013-.037-.009-.025c0-.009-.008-.024-.013-.036L8,3.523l-.013-.036-.008-.022-.016-.041a.046.046,0,0,0-.006-.017l-.022-.055-.007-.016L7.911,3.3,7.9,3.275l-.014-.034-.01-.022-.014-.031-.01-.022L7.84,3.135l-.01-.021-.015-.033a.167.167,0,0,0-.009-.018l-.023-.045-.005-.011-.021-.042-.009-.018-.016-.03L7.721,2.9l-.015-.026L7.7,2.851,7.68,2.825l-.011-.02-.016-.026L7.643,2.76l-.018-.034s0-.008-.007-.012L7.591,2.67l-.009-.015-.017-.026-.011-.017-.016-.025-.012-.017L7.51,2.546,7.5,2.529l-.016-.023L7.47,2.489l-.018-.025-.01-.014-.026-.037L7.408,2.4l-.02-.026-.012-.015L7.359,2.34l-.013-.016L7.33,2.3l-.013-.016L7.3,2.27l-.013-.015-.02-.02-.012-.013L7.235,2.2l-.01-.01L7.2,2.159l-.012-.012-.018-.019-.013-.013L7.139,2.1l-.013-.013-.017-.016L7.1,2.055l-.017-.017-.013-.012-.02-.018L7.035,2,7,1.973l-.011-.009-.032-.028-.018-.015L6.93,1.91,6.913,1.9,6.9,1.885l-.018-.013-.014-.011-.019-.014-.013-.01L6.81,1.818,6.8,1.81l-.023-.016-.013-.009-.018-.012-.014-.01-.018-.012L6.7,1.743l-.018-.011-.014-.008-.018-.011L6.635,1.7l-.021-.013L6.6,1.685l-.031-.017-.012-.006-.02-.011-.013-.007-.018-.01L6.5,1.626l-.017-.009L6.464,1.61,6.446,1.6,6.41,1.58,6.4,1.574l-.031-.014-.01,0-.022-.01-.013-.005L6.3,1.533,6.29,1.528l-.018-.007-.014-.005L6.24,1.508l-.013,0L6.208,1.5l-.013,0L6.162,1.48l-.029-.01-.008,0A1.308,1.308,0,0,0,5.877.435,1.01,1.01,0,0,0,5.148,0,.409.409,0,0,0,4.835.13a.449.449,0,0,0-.117.285.4.4,0,0,0-.336.3.419.419,0,0,0,.059.349.622.622,0,0,0-.193.454,2.892,2.892,0,0,0-.409.179c-.03.016-.06.033-.089.05l-.076.045-.055.035c-.055.036-.109.074-.164.116a.673.673,0,0,0-.053.045q-.05.04-.1.084c-.033.029-.075.068-.112.1-.053.053-.1.106-.153.163-.024.026-.048.056-.072.085s-.037.045-.054.069l-.031.04q-.044.059-.086.121c-.028.042-.061.093-.09.142s-.042.072-.063.109-.031.056-.045.084c-.026.053-.055.109-.081.166q-.075.162-.14.343c-.026.074-.053.15-.076.229-.016.053-.032.107-.047.163S2.226,4,2.213,4.05c0,.017-.008.034-.012.053-.013.058-.026.119-.038.179s-.02.106-.029.161q-.026.163-.048.339-.023.2-.037.419c-.006.081-.01.161-.014.238s-.008.155-.011.23-.006.149-.008.221v.048c-.07,0-.282,0-.849.928a7.053,7.053,0,0,0-.715,1.5.873.873,0,0,0-.042.473h0l-.022,0-.01,0-.02,0-.01,0-.022.006-.007,0-.028.009h0L.26,8.877l-.008,0-.018.008-.009,0L.208,8.9l-.007,0L.178,8.92l-.022.017-.006,0-.015.013-.007.007-.02.02L.093,9,.09,9l-.017.023,0,.006c0,.006-.008.013-.012.02l-.005.009a.148.148,0,0,0-.009.019l0,.01-.013.026,0,.01c0,.01-.007.021-.01.032A.333.333,0,0,0,0,9.2a.338.338,0,0,0,0,.044.936.936,0,0,0,.1.393,1.936,1.936,0,0,0,.134.244c.022.034.045.069.071.1a3.208,3.208,0,0,0,.567.591q.1.081.207.158a4.286,4.286,0,0,0,.4.253,5.58,5.58,0,0,0,1.833.618q.179.029.372.05a8.006,8.006,0,0,0,.857.045,6,6,0,0,0,1-.079c.118-.02.231-.045.34-.071a3.223,3.223,0,0,0,1.625-.912l.05-.054.077-.09.039-.049c.039-.05.076-.1.112-.152.02-.028.039-.057.057-.086a3.4,3.4,0,0,0,.214-.385c.016-.034.032-.067.045-.1l.029-.066c.02-.047.039-.095.057-.143s.026-.069.037-.106.022-.063.032-.1l.028-.09a.282.282,0,0,0,.045,0A.317.317,0,0,0,8.437,9.2a1.422,1.422,0,0,0,.5-.285,1.2,1.2,0,0,0,.345-.539,1.671,1.671,0,0,0,.06-.668ZM4.99,1.147l.006,0a.007.007,0,0,0,0-.005.008.008,0,0,0,0-.006.007.007,0,0,0,0,0c-.2-.094-.407-.185-.362-.349A.16.16,0,0,1,4.807.67a.928.928,0,0,1,.378.112h.009l0,0a.008.008,0,0,0,0-.005.007.007,0,0,0,0,0C5.049.618,4.891.46,5.028.3a.152.152,0,0,1,.12-.045A.991.991,0,0,1,5.872,1.4l-.013,0-.018,0-.013,0-.018,0-.032-.006h-.01l-.03,0H5.732l-.025,0H5.7l-.019,0H5.635l-.018,0H5.576l-.024,0H5.164l-.057,0h0l-.053,0H5.044l-.049,0H4.987l-.048.005H4.933l-.048.006h0L4.833,1.4l-.067.01L4.7,1.419l-.018,0c-.045.008-.086.017-.13.026l-.022.006-.01,0C4.57,1.181,4.8,1.157,4.99,1.147ZM.827,8.079a8.4,8.4,0,0,1,.654-1.23A2.21,2.21,0,0,1,2,6.205L2.015,6.2c.072,0,.166.085.247.215l.008.014a1.788,1.788,0,0,1,.07,1.6,1.373,1.373,0,0,1-.179.262,1.515,1.515,0,0,1-.626.419c-.054.02-.106.035-.149.047a1.164,1.164,0,0,1-.734,0C.645,8.735.615,8.587.827,8.079Zm7.414-.033a5.805,5.805,0,0,1-.182,1.028c-.026.092-.053.181-.083.268a3.178,3.178,0,0,1-.607,1.064,2.808,2.808,0,0,1-1.084.744,4.774,4.774,0,0,1-1.737.286,7.553,7.553,0,0,1-.958-.058c-.126-.016-.25-.035-.372-.058a5.391,5.391,0,0,1-1.3-.408A3.665,3.665,0,0,1,.557,9.876a1.063,1.063,0,0,1-.293-.649c.024-.084.073-.149.468-.149H.944a1.62,1.62,0,0,0,.7-.125,1.709,1.709,0,0,0,.932-.8A2.047,2.047,0,0,0,2.5,6.295a.914.914,0,0,0-.226-.262c.006-.253.017-.526.035-.816a4.34,4.34,0,0,1,1.019-2.81,2.582,2.582,0,0,1,1.025-.65,2.8,2.8,0,0,1,.521-.124A3.04,3.04,0,0,1,5.286,1.6a2.476,2.476,0,0,1,.753.112,2.241,2.241,0,0,1,.87.52,5.029,5.029,0,0,1,1.231,3.1c.028.236.057.494.079.766A11.153,11.153,0,0,1,8.241,8.046Zm.847-.086a1.1,1.1,0,0,1-.012.144,1.278,1.278,0,0,1-.026.134.986.986,0,0,1-.126.3.94.94,0,0,1-.075.1.489.489,0,0,1-.043.045c-.015.013-.03.03-.045.045s-.03.026-.045.039a1.12,1.12,0,0,1-.149.1c-.034.019-.068.036-.1.051s-.07.029-.106.041c.01-.042.02-.084.029-.127q.034-.16.059-.324c0-.025.008-.049.011-.074.009-.063.017-.126.025-.19,0-.045.009-.089.014-.134s.008-.089.012-.134c.005-.067.01-.134.014-.2,0-.045,0-.089.006-.134s0-.09,0-.134v-.47c0-.045,0-.089,0-.134s0-.089-.005-.134,0-.089-.006-.134c-.006-.121-.014-.242-.023-.361h0l.01.009q.05.059.1.126c.024.034.047.069.07.106l.023.037a2.544,2.544,0,0,1,.138.268c.021.045.04.094.059.142q.041.109.075.224c.022.075.042.152.058.228a2.976,2.976,0,0,1,.049.313c0,.026.005.053.007.079C9.088,7.859,9.089,7.911,9.088,7.96Z" transform="translate(0 0.004)" fill="#383838"/>
  <path id="Path_127" data-name="Path 127" d="M119.715,440.673a.286.286,0,0,1-.264-.187l-.264-.715q-.192-.021-.372-.05c.122.34.273.757.315.869.014.037,0,.084-.069.084h-.407s-.123.271.211.261c.924-.028.823.713,1.114.572s-.253-.573-.245-.572c1.064.134.724-.262.724-.262Z" transform="translate(-115.5 -428.111)" fill="#383838"/>
  <path id="Path_128" data-name="Path 128" d="M198.352,438.234a.126.126,0,0,1-.073-.022.129.129,0,0,1-.048-.059c-.049-.122-.141-.383-.206-.563-.109.026-.223.05-.34.07.07.194.168.463.176.489.019.059.005.082-.1.082h-.4s-.114.255.323.255c.891,0,.706.749,1.049.557.219-.122-.188-.468-.22-.509-.019-.023,0-.056.045-.049.911.139.686-.254.686-.254S198.619,438.234,198.352,438.234Z" transform="translate(-192.141 -426.037)" fill="#383838"/>
  <path id="Path_129" data-name="Path 129" d="M173.661,158.493a.2.2,0,1,0-.151-.024A.2.2,0,0,0,173.661,158.493Z" transform="translate(-168.837 -153.926)" fill="#383838"/>
  <path id="Path_130" data-name="Path 130" d="M253.457,158.4a.2.2,0,1,0-.151.025A.2.2,0,0,0,253.457,158.4Z" transform="translate(-246.469 -153.859)" fill="#383838"/>
  <path id="Path_131" data-name="Path 131" d="M199.514,183.939l-.5-.209a.153.153,0,0,0-.053-.009.155.155,0,0,0-.053.009l-.506.209a.087.087,0,0,0-.041.026.085.085,0,0,0-.019.045.086.086,0,0,0,.008.049.088.088,0,0,0,.034.036l.512.332a.1.1,0,0,0,.064.019.1.1,0,0,0,.063-.019l.513-.332a.086.086,0,0,0,.023-.129A.09.09,0,0,0,199.514,183.939Z" transform="translate(-193.101 -178.869)" fill="#383838"/>
</svg>
