<svg xmlns="http://www.w3.org/2000/svg" width="11.819" height="11.84" viewBox="0 0 11.819 11.84">
  <path id="pinterest-social-media-svgrepo-com" d="M6.351,0A5.912,5.912,0,0,0,3.987,11.33a5.273,5.273,0,0,1,.1-1.365c.122-.489.754-3.22.754-3.22a2.389,2.389,0,0,1-.183-.937c0-.876.509-1.528,1.141-1.528a.8.8,0,0,1,.795.9,12.622,12.622,0,0,1-.53,2.1A.915.915,0,0,0,7,8.416c1.121,0,1.875-1.447,1.875-3.138A2.21,2.21,0,0,0,6.412,3.016,2.807,2.807,0,0,0,3.5,5.849,1.7,1.7,0,0,0,3.885,7.01a.289.289,0,0,1,.082.326c-.02.1-.1.367-.122.469a.209.209,0,0,1-.306.143,2.268,2.268,0,0,1-1.2-2.262A3.906,3.906,0,0,1,6.554,2,3.534,3.534,0,0,1,10.3,5.38C10.3,7.7,9.02,9.435,7.125,9.435A1.716,1.716,0,0,1,5.678,8.7s-.346,1.365-.408,1.63A4.81,4.81,0,0,1,4.68,11.6a5.717,5.717,0,0,0,1.671.245A5.92,5.92,0,0,0,6.351,0" transform="translate(-0.441)" fill="#cb1f24"/>
</svg>
