<svg xmlns="http://www.w3.org/2000/svg" width="12.623" height="10.352" viewBox="0 0 12.623 10.352">
  <path id="icons8-twitter" d="M18.62,10.224a5.179,5.179,0,0,1-1.489.415,2.626,2.626,0,0,0,1.14-1.448,5.143,5.143,0,0,1-1.645.634A2.565,2.565,0,0,0,14.737,9a2.6,2.6,0,0,0-2.59,2.613,2.666,2.666,0,0,0,.068.6A7.337,7.337,0,0,1,6.877,9.477a2.636,2.636,0,0,0,.8,3.492A2.6,2.6,0,0,1,6.5,12.642v.031a2.609,2.609,0,0,0,2.077,2.563,2.533,2.533,0,0,1-.681.094,2.7,2.7,0,0,1-.488-.048A2.6,2.6,0,0,0,9.831,17.1a5.174,5.174,0,0,1-3.217,1.119A5.033,5.033,0,0,1,6,18.179a7.355,7.355,0,0,0,11.339-6.264c0-.113,0-.226-.009-.337a5.146,5.146,0,0,0,1.293-1.354" transform="translate(-5.997 -9)" fill="#03a9f4"/>
</svg>
