<svg id="icons8-whatsapp" xmlns="http://www.w3.org/2000/svg" width="12.62" height="12.674" viewBox="0 0 12.62 12.674">
  <path id="Path_111" data-name="Path 111" d="M4.868,17.045l.847-3.093a5.971,5.971,0,1,1,5.174,2.989h0a5.964,5.964,0,0,1-2.853-.727Z" transform="translate(-4.553 -4.686)" fill="#fff" fill-rule="evenodd"/>
  <path id="Path_112" data-name="Path 112" d="M4.526,16.859a.157.157,0,0,1-.152-.2l.83-3.03A6.127,6.127,0,1,1,7.671,16.04l-3.105.814A.144.144,0,0,1,4.526,16.859Z" transform="translate(-4.211 -4.343)" fill="#fff" fill-rule="evenodd"/>
  <path id="Path_113" data-name="Path 113" d="M10.2,4.314a5.971,5.971,0,0,1,0,11.942h0a5.964,5.964,0,0,1-2.853-.727l-3.165.83.847-3.093A5.971,5.971,0,0,1,10.2,4.314m0,11.942h0m0,0h0M10.2,4h0a6.287,6.287,0,0,0-5.511,9.309l-.813,2.968a.314.314,0,0,0,.383.387l3.046-.8A6.286,6.286,0,1,0,10.2,4Z" transform="translate(-3.868 -4)" fill="#cfd8dc" fill-rule="evenodd"/>
  <path id="Path_114" data-name="Path 114" d="M16.7,9.661a4.963,4.963,0,0,0-7.714,6.146l.118.188-.5,1.831,1.878-.492.181.108a4.953,4.953,0,0,0,2.526.692h0A4.963,4.963,0,0,0,16.7,9.661Z" transform="translate(-6.86 -6.883)" fill="#40c351" fill-rule="evenodd"/>
  <path id="Path_115" data-name="Path 115" d="M15.907,15.475c-.112-.248-.229-.253-.336-.258-.087,0-.186,0-.286,0a.548.548,0,0,0-.4.187,1.672,1.672,0,0,0-.522,1.244,2.9,2.9,0,0,0,.609,1.543,6.125,6.125,0,0,0,2.548,2.252c1.26.5,1.517.4,1.79.373A1.506,1.506,0,0,0,20.32,20.1a1.249,1.249,0,0,0,.087-.709c-.037-.062-.137-.1-.286-.174s-.883-.436-1.02-.485-.236-.075-.336.075-.385.485-.472.585-.174.112-.323.037a4.083,4.083,0,0,1-1.2-.74,4.5,4.5,0,0,1-.83-1.033c-.087-.149-.009-.23.065-.3s.149-.174.224-.261a1.02,1.02,0,0,0,.149-.249.274.274,0,0,0-.013-.261C16.329,16.508,16.04,15.77,15.907,15.475Z" transform="translate(-11.064 -11.688)" fill="#fff" fill-rule="evenodd"/>
</svg>
