<svg id="Group_786" data-name="Group 786" xmlns="http://www.w3.org/2000/svg" xmlns:xlink="http://www.w3.org/1999/xlink" width="718.621" height="552.988" viewBox="0 0 718.621 552.988">
  <defs>
    <clipPath id="clip-path">
      <rect id="Rectangle_296" data-name="Rectangle 296" width="718.621" height="552.988" fill="none"/>
    </clipPath>
  </defs>
  <g id="Group_785" data-name="Group 785" clip-path="url(#clip-path)">
    <path id="Path_680" data-name="Path 680" d="M798.577,326.039c0,131.741-106.8,238.539-238.539,238.539S321.5,457.78,321.5,326.039,428.3,87.5,560.039,87.5,798.577,194.3,798.577,326.039" transform="translate(-79.956 -21.761)" fill="#f7931e"/>
    <path id="Path_681" data-name="Path 681" d="M323.5,510.963c-3.539-.391-7.083-.745-10.616-1.18a62.724,62.724,0,0,1-19.159-5.024c-.875-.408-1.725-.87-2.458-1.243,2.442-6.635,5-13.085,7.2-19.659,5.427-16.255,8.818-33.005,11.729-49.857,1.051-6.084,2.135-12.178,2.782-18.311.8-7.575-.657-15.046-1.79-22.509a121.056,121.056,0,0,1-1.542-23.122c.685-17.172-3.45-57.9-13.365-72.18a10.652,10.652,0,0,0-7.99-4.977c-16.632-1.494-31.847-7.765-47.172-13.711-10.971-4.256-21.994-8.336-33.673-10.307-17.958-3.029-35.356-.808-52.394,5.3-9.243,3.312-17.561,8.415-26.125,13.064-8.439,4.582-17.38,7.266-27.131,6.327a46.239,46.239,0,0,1-16.352-4.9c-8.8-4.427-17.922-7.634-27.794-8.473a3.458,3.458,0,0,1-.78-.295,21.336,21.336,0,0,1,12.088-.153c6.787,1.977,13.463,4.34,20.155,6.629,6.512,2.226,13.117,3.8,20.062,3.316,6.75-.467,12.865-2.91,19.323-6.308-11.138-2.575-21.451-5.862-30.16-13.1-2.85,4.632-4.989,9.789-10.807,11.278-4.483,1.146-8.349-1.24-12.469-2.182,1.409-6.732,10.052-12.211,16.523-10.73a20.388,20.388,0,0,0,4.439.047q.168-.323.337-.646l-6.5-5.437.842-.933,11.136,8.716,1.932-2.445c-5.231-7.007-1.811-13.133,1.859-19.408,3.612,3.325,7.345,6.408,8.164,11.469.586,3.621-.646,6.947-2.465,10.007-1.1,1.846-2.959,1.866-4.9,1.3a4.553,4.553,0,0,0,3.216,3.61,86.627,86.627,0,0,0,22.492,5.366,4.248,4.248,0,0,0,2.381-.476c7.735-4.54,15.433-9.145,23.135-13.741a.786.786,0,0,0,.249-.287c-4.278-3.312-8.531-6.626-12.812-9.9a2.6,2.6,0,0,1-1.11-2.629,10.563,10.563,0,0,0-.535-4.319,13.726,13.726,0,0,1,3.669-15.328c.178-.168.334-.36.591-.638-1.5-1.07-2.772-1.884-4.793-1.6-12.418,1.747-24.156-1.165-35.632-5.576-2.424-.932-4.84-1.905-7.187-3.013a1.676,1.676,0,0,0-2.412.627,66.371,66.371,0,0,1-18.454,16.347,15.348,15.348,0,0,1-2.95,1.357c6.358-6.672,13.617-12.465,18.611-20.333a54.15,54.15,0,0,0-36.223-.912c-5.759,1.79-11.631,3.234-17.489,4.683a40.652,40.652,0,0,1-5.683.63,43.9,43.9,0,0,1,2.971,5.791c2.24,6.515-.494,12.837-6.657,15.889-1.69.837-3.083.506-3.86-1.313-2.084-4.879-2.852-9.8.732-14.388,1.551-1.988,3.3-3.822,5.1-5.883-3.26-.9-6.415-1.8-9.59-2.612a1.393,1.393,0,0,0-1.1.541c-.887,1.195-1.736,2.424-2.5,3.7-3.781,6.264-8.713,8.07-15.6,5.582-1.7-.616-3.325-1.469-4.983-2.211v-1.563c1.384-1.451,2.747-2.923,4.155-4.351,3.279-3.323,7.152-4.6,11.75-3.361a22.006,22.006,0,0,0,3.039.684c.685.084,1.936.055,2.011-.2a4.13,4.13,0,0,0,.091-2.859,16.845,16.845,0,0,0-3.225-3.874,10.712,10.712,0,0,1-3.389-8.974c.085-1.813.163-3.627.243-5.421,6.784-.41,14.094,5.859,14.587,12.36.084,1.1.252,2.2.256,3.307.008,2.56-.856,3.382-3.391,3.359-.316,0-.633,0-.956,0,.243,3.016.248,3.128,3.1,3.025,3.952-.143,7.9-.468,11.845-.74a8.452,8.452,0,0,0,1.536-.507c-1.458-1.361-2.637-2.633-3.985-3.69-5.061-3.974-6.091-8.921-3.786-14.768.521-1.319.923-2.687,1.484-4.34,2.592,1.947,5.117,3.666,7.433,5.632a9.263,9.263,0,0,1,3.367,7.592c-.056,2.016-.228,4.032-.2,6.046a16,16,0,0,0,.56,2.905,10.646,10.646,0,0,0,2.884-.715A48.99,48.99,0,0,1,64.3,214.251c9.386-1.917,18.721-1.094,27.824,1.411,9.133,2.513,18.094,5.653,27.129,8.521.534.17,1.064.352,1.925.636-4.474-10.519-4.916-21.632-7.436-32.278a2.443,2.443,0,0,0-2.044-2.176c-3.605-.838-7.138-2.077-10.78-2.627-1.583-.239-3.363.822-5.053,1.293.012.2.025.411.037.616l8.415,2.432c-4.452,10.4-11.2,14-23.347,6.173,4.112-5.5,10.154-8.331,16.228-11.777L89.139,182.9a32.573,32.573,0,0,1-.7,5.449c-1.329,4.386-6.683,7.8-11.218,6.892-3.444-.693-6.748-2.083-10.213-3.195,4.779-8.519,11.368-11.568,20.841-8.217l-2.125-3.681,2.464-.9c-.089-.182-.152-.374-.186-.369-2.748.393-3.662-1.358-4.41-3.547a32.016,32.016,0,0,1-2.01-11.125c1.674.187,3.26.32,4.832.549,3.5.509,3.493.529,5.907-2.285l-12.506-7.449c.129-.246.259-.489.388-.733,3.561,1.829,7.207,3.515,10.66,5.53,3.47,2.026,6.748,4.381,10.253,6.685-.4-2.338-.862-4.574-1.149-6.832a66.1,66.1,0,0,1,.758-20.017,2.623,2.623,0,0,1,.372-1.273,101.758,101.758,0,0,1,7.895-8.069c1.2-1.02,3.225-1.287,4.919-1.449,2.439-.234,4.919-.059,7.46-.059-1.848,9.311-4.856,16.481-20.1,14.47.352,8,.15,16.046,4.116,23.364A71.891,71.891,0,0,0,110.372,175c5.8,7.9,8.868,16.773,10.421,26.379a83.546,83.546,0,0,0,3.94,14.832c1.074,2.984,3.215,5.6,4.962,8.321a3.332,3.332,0,0,0,3.578,1.485c6.9-1.206,13.852-2.218,20.692-3.722,7.489-1.647,14.889-3.687,22.678-3.839-.027-.241.02-.477-.076-.589-6.759-7.816-11.3-16.961-15.707-26.184-1.234-2.58-2.485-5.152-3.772-7.706-.247-.49-.615-1.114-1.068-1.274-7.986-2.818-15.42-6.551-21.441-12.876-3.88,3.532-7.765,6.777-13.405,5.524-5.048-1.122-7.531-5.219-10.379-8.91,4.617-3.79,12.669-4.563,17.974-1.863a22.944,22.944,0,0,0,2.908.834,5.745,5.745,0,0,1,1.973.983,68.477,68.477,0,0,0,19.813,12.69c-.679-2.623-1.358-5.071-1.944-7.542a60.285,60.285,0,0,1-1.219-19.78c.673-7.074-.53-14.015-1.62-20.961-.431-2.752-.806-5.512-1.207-8.27l.5-.165c.308.77.64,1.531.922,2.311,3.409,9.454,4.37,19.314,3.979,29.218a43.872,43.872,0,0,0,5.947,23.849c3.982,7.084,7.6,14.37,11.553,21.471a63.512,63.512,0,0,0,13.171,16.831,10.3,10.3,0,0,0,5.325,2.533c6.978,1.216,13.934,2.56,20.491,5.4a29.223,29.223,0,0,1,15.443,14.445c3.9,8.1,8.423,15.868,14.729,22.415a31.948,31.948,0,0,0,5.483,4.591c-.141-1.633-.394-3.264-.4-4.9-.038-6.312-.379-12.653.1-18.929.71-9.228-.519-18.163-2.681-27.057-.353-1.452-.615-2.925-.911-4.39-.024-.12.024-.255.522-.631,1.369,2.805,2.93,5.535,4.07,8.43,3.034,7.711,3.05,15.892,3.511,24.011.386,6.811.981,13.612,1.606,20.406a45.776,45.776,0,0,0,1.183,4.917,6.194,6.194,0,0,0,5.261,5.094,129.012,129.012,0,0,0,13.632,2.282,114.408,114.408,0,0,0,31.276-1.914,2.41,2.41,0,0,0,1.449-1.608c1.253-6.2.89-12.43.167-18.656a2.846,2.846,0,0,1-.1-.575c.446-4.276-2.1-6.182-5.666-7.541q-11.559-4.4-23.008-9.085c-5.8-2.384-11.221-5.446-15.686-10.071l4.937,2.446c-1.21-2.708-2.09-5.135-3.341-7.354a7.67,7.67,0,0,1-.25-7.107c1.067-2.565,2.378-5.028,3.587-7.544,6.7,3.73,9.923,10.665,8.072,17.057-1.024,3.538-3.01,6.035-7.036,6.718l13.81,5.478.295-.338c-1.147-2.072-2.178-4.219-3.464-6.2-2.7-4.155-2.55-8.183.228-12.185,1.365-1.967,2.788-3.893,4.336-6.049,2.663,3.126,5.146,6.088,6.156,9.968a9.567,9.567,0,0,1-.927,7c-1.435,2.758-2.92,5.489-4.506,8.461,7.43.843,14.1,3.56,21.088,7.2-1.539-4.995-2.871-9.45-4.283-13.879-6.446-20.206-26.767-28.639-42.8-27.681-5.518.33-11.064.5-16.589.358-11.193-.292-21.559-3.829-31.546-8.641-1.166-.561-2.329-1.128-3.62-1.753-1.432,1.96-2.784,3.93-4.257,5.805-3.707,4.723-8.94,6.162-14.435,3.856-2.255-.946-4.359-2.249-6.648-3.451,3.476-4.05,7.011-7.564,12.4-8.2a8.286,8.286,0,0,1,3.851.21,5.185,5.185,0,0,0,5.231-.826c-2.585-2.086-5.107-4.228-7.768-6.179a2.6,2.6,0,0,0-2.354.053c-1.693,1.077-3.212,2.429-4.814,3.651-4.246,3.242-8.538,3.48-13.018.56-2.063-1.345-3.961-2.944-6.415-4.79,3.267-1.951,6.138-3.913,9.237-5.4a7.842,7.842,0,0,1,4.706-.324c3.934.835,7.808,1.967,11.677,3.082a5.729,5.729,0,0,1,2.074,1.37,51.19,51.19,0,0,0,20.363,11.514c.553.162,1.117.285,2.021.513-2.772-10.774-9.061-19.541-13.928-29.106.4.318.825.617,1.209.959s.745.727,1.105,1.1c5.753,6.01,9.584,13.243,13.118,20.662a46.992,46.992,0,0,1,2.5,5.494c.742,2.279,2.277,3.18,4.456,3.711,7.278,1.775,14.593,1.433,21.937.672,8.146-.844,16.261-2.285,24.505-1.4,1.414.153,2.823.35,4.6.573-.438-.89-.736-1.557-1.087-2.2-13.044-23.728-32.643-39.4-58.393-47.527-6.315-1.994-12.581-4.148-18.912-6.089-10.456-3.208-18.045-9.893-24.056-18.85-5.359-7.985-11.016-15.78-16.808-23.459-3.283-4.352-7.1-8.3-10.868-12.647-2.835,5.186-5.478,10.559-12.178,11.2-4.456.427-7.865-2.222-11.706-4.383l8.2-7.777c-7.037-1.135-13.682-2.354-18.535-7.769,8.7-8.533,15.152-7.782,23.47-.4-1.279,1.862-2.573,3.719-3.823,5.6-.156.234-.08.622-.121,1.041,4.155,1.888,8.651.766,13.359,1.829-1.754-1.684-3.162-3.038-4.572-4.39,7.438,4.092,13.154,10.2,19.127,16,.177-.077.353-.155.53-.233l-4.146-20.423c2.708,3.457,3.7,7.537,4.677,11.633a122.212,122.212,0,0,0,3.111,12.253c.946,2.693,2.726,5.124,4.316,7.552,2.388,3.643,5.041,7.112,7.4,10.774,5.923,9.212,14.919,13.934,24.663,17.328-2.044-4.394-4.258-8.79-6.161-13.319-2.939-6.995-2.7-14.508-3.25-21.892-.491-6.609-1.134-13.208-1.766-20.456a9.611,9.611,0,0,0-2.344,1.334c-2.632,3.119-5.926,3.866-9.677,2.709a11.168,11.168,0,0,1-8.086-8.222c-.562-2.194-1.014-4.416-1.583-6.92,4.905-.53,9.3.319,13.192,3.124a12.566,12.566,0,0,1,3.486,3.625,7.209,7.209,0,0,0,4.217,3.452,2.876,2.876,0,0,1,2.139,2.464q1.968,10.933,3.935,21.864c.227,1.27.382,2.551.636,4.282a74.521,74.521,0,0,0,10.1-12.326l2.057,2.357c-1.728,2.278-3.417,4.747-5.351,7.005-5.518,6.448-6.042,13.254-2.136,20.722,2.382,4.554,4.989,8.886,9.119,12.005a25.724,25.724,0,0,0,5.995,3.086c9.946,3.978,20.064,7.558,29.863,11.867a63.443,63.443,0,0,1,25.806,19.984c.068.092.2.134.563.366-.563-3.032-1.029-5.87-1.625-8.681-2.188-10.317-1.367-20.55.536-30.81,1.406-7.575,2.233-15.21-.107-22.8-.171-.554-.365-1.1-.742-2.233-.669,1.749-1.285,3.006-1.637,4.334-2.028,7.63-6.8,11.741-14.84,11.792-.961.006-1.921.133-3.128.222.914-4.764.676-9.631,4.76-13.113,3.938-3.358,8.785-2.554,13.345-3.122l.194-.588-15.738-7.9c-.57,5.2-.884,10.037-5.141,13.233-3.869,2.9-8.5,2.89-13.239,3.509.554-3.821.508-7.637,2.683-10.914,2.258-3.4,6.285-3.911,10-5.771-.685-1.038-1.1-2.2-1.915-2.811-4.9-3.663-7.355-8.619-8.188-14.865,5.376-.128,10.747-1.032,14.772,3.868,2.173,2.645,2.58,5.753,2.67,8.972.116,4.128.113,4.077,3.966,5.535,3.993,1.509,7.943,3.133,12.354,4.882a19.51,19.51,0,0,0-1.193-2.7c-3.709-5.641-7.464-11.254-11.2-16.877-3.235-4.868-6.784-9.562-9.623-14.651a22.349,22.349,0,0,1-.14-22.732,16.184,16.184,0,0,1,7.512-6.907c1.033,2.6,2.147,5.095,3.016,7.667,1.832,5.426-2.7,14.91-10.588,14.569a5.3,5.3,0,0,0-.854.159,22.187,22.187,0,0,0,1.2,2.228c4.247,6.069,8.111,12.466,12.879,18.1a74.351,74.351,0,0,1,15.143,29.155c.169.626.379,1.24.585,1.855.037.109.15.192.27.34,3.806-4.88,7.581-9.763,11.4-14.611,4.541-5.762,5.381-12.529,5.406-19.532.015-4.035.068-8.071.008-12.106a4.091,4.091,0,0,0-.779-2.1,51.266,51.266,0,0,1-7.146-16.135,1.416,1.416,0,0,1,.318-1.254q3.828,7.032,7.675,14.1l4.9-15.9.881.217c-.436,2.775-.79,5.565-1.325,8.319a67.355,67.355,0,0,0-.306,22.931c1.509,10.106-.865,19.187-6.344,27.661-4.343,6.72-8.541,13.545-11.006,21.239-6.424,20.051-4.267,39.375,4.987,58.092,3.175,6.422,7.726,11.86,12.224,17.344,2.177,2.655,4.306,5.35,6.393,7.947,2.472-3.134,4.816-6.332,7.4-9.324a35.076,35.076,0,0,1,10.935-8.373,2.479,2.479,0,0,1,3.034.114c1.5,1.216,3.135,1.261,5.083,1.045,6.406-.7,10.992,2.621,14.889,7.284-10.928,8.717-15.286,6.57-24.034-2.436l3.222-.813-2.774-3.615a68.538,68.538,0,0,0-14.75,19.758,2.119,2.119,0,0,0,.183,1.716c9.829,16.119,15.955,33.64,19.784,52.037a9.08,9.08,0,0,0,.42,1.158c2.026-4.689,3.93-9.286,5.984-13.816,4.42-9.744,10.122-18.757,15.922-27.716,2.66-4.108,5-8.382,5.4-13.42.476-5.9-1.977-10.91-4.787-15.8A65.343,65.343,0,0,0,343,189.666a28.852,28.852,0,0,0-6.487-5.512c-7.327-4.886-15.607-7.628-23.932-10.236a4.132,4.132,0,0,1-2.015-1.524,47.658,47.658,0,0,1,14.756,3.228c4.729,1.72,9.346,3.746,13.876,5.582-1.165-4.512-2.732-9.082-3.464-13.781-1.009-6.476-1.451-13.044-1.984-19.586a2.954,2.954,0,0,0-1.762-2.811c-6.254-3.367-11.879-7.521-15.762-13.635a27.9,27.9,0,0,1-2.379-4.862c6.059,6.2,11.966,12.494,20.441,15.9,2.119-16.976,4.63-33.747,2.784-50.883,2.159.317,3.393.949,3.714,3.312,1.363,10.029.58,20-.273,30q-1.128,13.218-1.707,26.479a43.2,43.2,0,0,0,1.1,10.236c.328-.506.663-1.007.981-1.518,5.4-8.7,10.947-17.269,18.809-24.033a41.028,41.028,0,0,1,13.161-7.842,5.756,5.756,0,0,1,.736-.233c.107-.02.237.067.355.108-3.554,2.934-7.156,5.808-10.651,8.808A73.972,73.972,0,0,0,345.324,160.7c-.72,1.455-1.583,2.844-2.23,4.329a10.312,10.312,0,0,0-.116,8.135,94.149,94.149,0,0,0,19.121,30.58c1.082,1.176,1.853,1.273,3.275.542,12.95-6.656,22.749-16.542,29.973-29.064a5.009,5.009,0,0,0,.48-3.46,45.592,45.592,0,0,0-2.612-6.9c-1.185-2.595-2.581-5.1-4.078-8.015-2.572,6.222-7.669,9.094-13.758,9.581-4.721.378-8.242-3.05-11.772-5.828,3.522-5.071,10.256-7.9,15.517-6.52a12,12,0,0,1,2.7,1.09c2.67,1.459,2.656,1.485,5.093-.8-1.407-1.583-2.845-3.152-4.228-4.766a54.929,54.929,0,0,1-3.94-5.095c8.894,5.851,15.014,14.188,20.467,23.187,4.518-6.989,8.585-28.187,7.257-38.084-1.107.536-2.107,1.056-3.135,1.509a50.54,50.54,0,0,1-6.618,2.775,8.837,8.837,0,0,1-8.128-1.641c-2.254-1.818-4.3-3.893-6.573-5.977,3.958-2.054,7.32-5.28,11.522-4.752,3.932.494,7.68,2.465,11.989,3.952-.324-3.023-.4-6.061-1.008-8.986a61.189,61.189,0,0,0-12.758-26.014c-3.5-4.358-6.845-8.846-10.213-13.311a16.878,16.878,0,0,1-2.023-3.33c-3.309-7.548-9.325-12.2-16.569-15.487-4.2-1.909-8.481-3.63-12.721-5.444a5.938,5.938,0,0,1-1.582-.966c9.509.045,17.751,3.769,25.449,8.74-.748-6.9-1.486-13.719-2.225-20.536l.669-.094c.832,3.573,1.539,7.182,2.53,10.711a101.484,101.484,0,0,0,3.594,10.9c1.411,3.458,3.28,6.729,4.948,10.08l.65-.086,5.536-18.67.63.115c-.333,3.039-.449,6.123-1.073,9.1a4.42,4.42,0,0,0,1.8,4.923A12.553,12.553,0,0,1,401.345,60a18.876,18.876,0,0,1,11.273,2.251c-5.11,12.167-15.245,14.023-23.913,4.781-.678,2.606-1.382,4.993-1.869,7.422-.109.543.422,1.335.854,1.846,3.233,3.829,6.594,7.552,9.762,11.433,5.739,7.028,9.014,15.289,11.628,23.858.773,2.538,1.589,5.062,2.567,7.618.118-21.52,3.276-42.082,18.315-59.23-3.861.145-5.142-2.21-6.079-5.14-1.639-5.126-.349-9.448,3.207-13.292,1.5-1.622,2.918-3.324,4.373-4.989.279.1.557.2.835.3,1.3,3.158,2.613,6.315,3.9,9.481.268.66.422,1.366.677,2.032.705,1.85,1.978,2.2,3.43.876,1.057-.963,2.017-2.032,3.017-3.058,3.451-3.536,7.513-4.72,12.284-3.213,1.98.627,3.965,1.239,6.222,1.943-2.729,4.518-4.785,9.634-10.768,10.356a19.156,19.156,0,0,1-7.4-1.036,64.686,64.686,0,0,1-7.355-3.1l-9.2,16.666c4.681-2.382,8.535-6.622,14.28-5.416,3.731.784,6.632,3.152,9.647,5.532-3.627,3.426-6.886,7.214-12.356,7.212-5.331,0-8.493-4.031-12.145-6.719-11.2,20.1-10.526,41.563-7.244,63.49.787-1.011,1.611-2.014,2.375-3.061a60.382,60.382,0,0,1,32.476-23.086c4.566-1.334,7.593-3.77,9.061-8.338a48.949,48.949,0,0,1,2.871-6.065c.183.059.367.116.551.173-.628,3.72-1.255,7.442-1.924,11.406,14.441-2.557,25.875-9.8,34.927-21.336.532.634.974,1.167,1.422,1.694.412.485.829.968,1.234,1.439,7.349-4.532,14.744-3.442,20.862,3.055-3.371,3.868-6.989,7.226-12.708,6.551-5.457-.642-8.565-4.8-12.068-8.133-2.581,2.741-4.925,5.617-7.658,8.057-7.935,7.086-17.55,11.043-27.566,14.085-11.552,3.51-22.157,8.7-30.841,17.24-3.023,2.973-5.582,6.418-8.353,9.646q.212.264.424.527l4.583.6c.12.866.24,1.726.384,2.769-1.829-.115-3.453-.091-5.031-.35-1.489-.246-2.048.376-2.5,1.671-2.508,7.241-5.134,14.442-7.628,21.688a69.974,69.974,0,0,1-7.309,15.465c-2.086,3.218-3.9,6.623-4.31,10.7,2.294,1.436,4.829,1.325,7.289.687a66.119,66.119,0,0,0,20.524-9.735,167.071,167.071,0,0,0,17.3-13.3c5.157-4.6,10.472-8.868,16.907-11.318,5.013-1.909,7.862-5.234,9.5-10.173a91.445,91.445,0,0,1,4.216-9.417,12.5,12.5,0,0,1,1.034-1.58l.583.22c-1.9,6.088-3.8,12.175-5.783,18.518,9.479-1.753,17.145-6.116,22.894-14.091-13.74.672-15.52-13.466-10.372-21.746,2.293,1.565,4.633,3.056,6.853,4.707,2.081,1.549,2.616,3.947,3.054,6.341.489,2.671.97,5.346,1.537,8.474l4.839-6.512c3.215,2.146,6.221,4.175,9.246,6.171,3.952,2.608,5.278,6.318,4.373,10.823-.517,2.573-1.357,5.083-2.147,7.969-2.632-1.914-4.92-3.492-7.11-5.2-2.623-2.04-3.234-5.051-3.708-8.117-.414-2.675-.919-5.336-1.4-8.126l-9.941,14.236c6.306,1.186,12.683,2.794,17.1,8.838-2.748,1.483-5.287,3.056-7.99,4.258a10.3,10.3,0,0,1-9.736-.726c-1.4-.816-2.671-1.873-4.1-2.627-1.718-.905-1.744-1.921-.678-3.355a33.24,33.24,0,0,0,1.8-3.02c-3.892,1.183-7.695,2.342-11.5,3.5-4.462,1.354-9.287,2.045-13.292,4.235-4.486,2.454-8.318,6.16-12.277,9.509-6.451,5.459-12.618,11.264-19.2,16.56-6.122,4.928-13.689,7.06-20.961,9.681-8.814,3.176-17.677,6.3-25.223,12.066-8.9,6.8-15.842,15.381-21.792,24.8-7.14,11.3-12.106,23.548-15.826,36.337a11.032,11.032,0,0,0-.176,1.3c.988-.474,1.765-.848,2.543-1.221a121.148,121.148,0,0,1,34.362-10.444,4.835,4.835,0,0,0,3.373-1.96c4.583-5.908,7.837-12.563,11.058-19.247,3.417-7.09,6.771-14.225,11.853-20.343a29.32,29.32,0,0,1,10.7-8.552l-7.693,9.458,2.246,1.648c7.249-5.092,14.473-4.455,20.6,1.938-4,3.118-7.327,7.584-13.14,6.954-5.165-.559-10.283-1.681-11.992-8.052A295.81,295.81,0,0,0,396.26,255.6a37.059,37.059,0,0,1,4.338-.267c6.625.37,13.309.393,19.851,1.355,8.807,1.3,15.314-2.074,20.238-8.849,3.352-4.611,6.024-9.712,9.1-14.532,2.407-3.776,5-7.436,7.421-11.2a3.659,3.659,0,0,0,.446-2.258c-.648-5.285-1.392-10.559-2.091-15.837-.153-1.154.2-1.792,1.527-1.307.918,5.16,1.835,10.315,2.849,16.012,3.5-3.556,6.612-6.768,9.782-9.916,6.481-6.436,13.292-12.467,21.34-16.929a29.744,29.744,0,0,1,3.471-1.777c10.484-4.127,16.79-12.153,20.757-22.3a58.52,58.52,0,0,0,4.008-21.353c.013-7.847,3.009-14.533,7.756-20.576a10.342,10.342,0,0,1,.941-.831,55.724,55.724,0,0,0-5.929,27.909,36.794,36.794,0,0,0,13.7-11.343l2.437,2.777c7.2-5.452,15.629-4.189,21.255,3.231-3.678,2.837-7.076,6.153-12.268,5.846-5-.3-8.418-3.782-12.072-6.083-4.128,2.884-8.08,5.61-11.98,8.407a3.681,3.681,0,0,0-1.363,1.769c-2.676,9.137-6.012,17.965-11.753,25.552,6.451-1.449,12.913-2.826,19.337-4.366a127.213,127.213,0,0,0,14.089-3.8c10.276-3.758,17.984-10.747,23.668-20.034,1.615-2.639,3.258-5.261,5.05-7.773-2.251,15.382-13.415,23.45-25.767,31.077,3.05.663,5.767,1.264,8.49,1.843,10.075,2.143,20.2,3.919,30.562,3.328,3.041-.174,6.056-.769,9.091-1.105,1.243-.137,1.646-.629,1.463-1.911-.322-2.251-.546-4.526-.654-6.8-.264-5.566,2.149-9.36,7.3-11.417,2.031-.811,4.161-1.373,6.378-2.091a14.739,14.739,0,0,1,.107,8.995c-1.808,5.982-5.167,10.441-11.261,13.016-10.883,4.6-21.95,4.913-33.307,2.744-6.827-1.3-13.659-2.59-20.655-3.476,1.005.564,2,1.148,3.017,1.691a51.669,51.669,0,0,1,16.516,13.451c6.967,8.778,16.079,14.884,25.879,20.174,4.3-3.155,8.3-6.942,14.414-4.892,4.615,1.548,6.89,5.233,9.438,9.24-3.071,1.049-5.917,2.111-8.821,2.983a7.665,7.665,0,0,1-6.917-1.04c-6.9-5.025-14.744-8.487-21.852-13.1a86.245,86.245,0,0,1-13.771-11.741c-7.267-7.306-15.7-12.042-25.887-13.755-6.254-1.053-12.117.269-18,2.14-18.406,5.856-34.852,14.982-48.34,28.977a124.354,124.354,0,0,0-9.75,11.9c15.27-5.016,30.312-10.379,46.531-10.433l.214.693c-3.029.973-6,2.209-9.095,2.871A142.724,142.724,0,0,0,467.367,230.9c-13.037,6.023-19.988,16.269-22.746,29.906-.116.573-.257,1.141-.367,1.716-.086.446-.141.9-.243,1.569,6.353,3.1,12.8,5.369,20.148,3.924,9.336-1.836,17.932-5.664,26.635-9.269,5.457-2.261,11.025-4.253,16.505-6.457a11.452,11.452,0,0,0,3.055-1.993c5.074-4.355,8.54-9.917,11.733-15.7,3.645-6.6,7.152-13.29,11.179-19.649,2.15-3.394,5.272-6.173,7.956-9.23l.648.515L529.091,225.8c1.234.849,2.225,1.53,3.329,2.29,5.771-5.476,11.8-3.215,18.127-.719-2.98,4.284-5.421,8.78-10.692,10.327a13.938,13.938,0,0,1-8.818-.5c-2.795-1.017-3.418-2.792-2.169-5.55.123-.272.253-.54.432-.922a4.042,4.042,0,0,0-3.479,3.083,70.594,70.594,0,0,1-8.678,18.042c-.348.524-.678,1.06-1.217,1.907.917,0,1.529-.032,2.137,0,7.98.473,15.962.905,23.934,1.482,1.288.093,1.706-.5,2.222-1.363,4.458-7.481,9.619-14.386,16.435-19.922a17.543,17.543,0,0,1,2.726-1.851c-6.2,8.1-13.43,15.494-16.907,25.613,11.638,3.456,22.744,3.564,32.857-3.862a146.881,146.881,0,0,0,11.637-9.811c6.341-5.759,13.792-7.468,22.073-6.537,3.582.4,3.585.385,4.8-3.016,1.322-3.694,2.984-7.194,6.972-8.642a13.228,13.228,0,0,1,5.464-.923,60.933,60.933,0,0,1,7.992,1.769c-1.875,2.981-3.439,5.723-5.254,8.288-2.056,2.9-5.152,3.79-8.568,3.79-4.492,0-8.984.011-13.476,0a27,27,0,0,0-19.882,8.522c-1.319,1.33-2.762,2.537-4.443,4.071l11.77,9.968c.637-1.826,1.113-3.213,1.606-4.6.522-1.468,1.011-2.95,1.6-4.393,1.956-4.806,5.583-7.181,10.742-7.246,2.14-.027,4.279,0,6.893,0-1.174,3.243-2.1,6.275-3.367,9.158-1.048,2.388-3.315,3.583-5.639,4.54-2.161.89-4.364,1.685-6.51,2.612-1.16.5-1.294,1.625-.237,2.142,5.843,2.855,11.654,5.88,18.475,5.387.969-.069,1.931-.252,2.895-.4,4.712-.713,8.174,1.368,10.494,5.205,1.475,2.44,2.353,5.24,3.686,8.309-5.635.116-10.646,1.45-15.142-1.932-2.794-2.1-4.186-5.092-5.393-8.188a3.189,3.189,0,0,0-2.59-2.231c-2.724-.566-5.409-1.312-8.769-2.146,4.767,4.953,7.067,10.3,6.593,16.659-10.853-.23-17.542-6.592-17.037-16.285l8.408-.909c-4.066-2.448-7.952-4.657-11.694-7.086a84.671,84.671,0,0,1-7.168-5.393c-1.028-.835-1.674-.948-2.8-.064a52.554,52.554,0,0,1-14.127,8.173c-5.7,2.105-11.445,1.742-17.3.666-8.63-1.585-17.286-3.068-25.977-4.255-3.554-.485-7.23-.08-10.975-.08l15.917,11.9c3.185-3.828,6.684-7.581,12.556-6.617,4.9.8,8.019,4.3,11.311,7.521-2.243,3.065-6.977,4.579-17.028,5.423l1.339,2.908-12.083-9.4-.494.343c.189.621.337,1.258.575,1.859.576,1.449,1.226,2.867,1.785,4.322a9.039,9.039,0,0,1-.527,8.086c-1.349,2.352-2.77,4.663-4.253,7.151-3.458-3.546-6.937-6.743-7.411-11.842-.479-5.148,2.887-8.708,5.433-12.87-3.582-1.591-7.2-2.9-10.526-4.746-4.4-2.439-8.158-2.159-12.6.376A114.95,114.95,0,0,1,472.932,274.5c-11.99,3.337-23.869,3.578-35.557-1.262-21.746-9.007-43.159-6.571-64.272,2.113-4.59,1.887-8.834,4.669-13.109,7.251a14.791,14.791,0,0,0-5.923,7.533c-6.313,15.722-8.943,56.887-9.27,73.764-.313,16.223,1.717,32.2,4.267,48.15,1.836,11.492,3.47,23.021,5.524,34.474,3.11,17.338,8.789,33.926,15.315,50.24.839,2.1,1.669,4.2,2.551,6.422a36.441,36.441,0,0,1-12.71,4.958c-5.747,1.047-11.575,1.649-17.367,2.447-.826.114-1.648.252-2.472.379ZM147.222,255.517c4.808,2.807,9.33,5.481,13.9,8.066a2.568,2.568,0,0,0,1.977.08c18.487-7.73,37.482-8.291,56.826-4.124,1.918.413,3.832.847,5.959,1.319-.486-1.658-.832-2.977-1.258-4.268-2.772-8.406-6.744-16.1-13.775-21.768-7.6-6.127-16.591-8.383-26.13-8.84-8.638-.414-17.12.884-25.553,2.572-3.149.63-6.288,1.307-9.618,2,1.331,2.379,2.552,4.446,3.663,6.571,3.79,7.248,1.615,14.339-5.993,18.392m-54.025-73c6.074,2.692,12.475,3.532,19.311,4.064-4.125-8.972-10.273-15.8-17.392-22.042l-1.8,2.739c1.454,2.368,3.007,4.32,3.939,6.535,1.973,4.692.82,6.932-3.894,8.451-.04.013-.059.087-.166.253" transform="translate(0 -9.093)" fill="#f7f7f7"/>
    <path id="Path_682" data-name="Path 682" d="M310.309,78.273c-3.9,3.6-7.136,6.679-12.053,6.932-4.886.251-8.362-2.8-12.284-5.1-2.706,4.98-5.39,9.868-8.025,14.783-1.612,3.007-1.624,3.064-5.509,4.466l11.524-17.927c-8.548,1.791-14.419-7.475-12.121-14.6.771-2.392,1.871-4.678,2.887-7.17a17.82,17.82,0,0,1,8.832,8.925c1.983,4.195.77,8.089-.906,12.067,3.32-.594,4.665-2.272,4.874-6.049a2.816,2.816,0,0,0,4,.05A9.678,9.678,0,0,1,302,73.4a87.266,87.266,0,0,1,8.307,4.873" transform="translate(-67.481 -14.836)" fill="#f7f7f7"/>
    <path id="Path_683" data-name="Path 683" d="M439.2,81.883c.347-.155.687-.33,1.043-.46,2.177-.793,2.58-1.464,1.675-3.624-1.978-4.721-.842-8.771,2.5-12.357,1.319-1.417,2.808-2.678,4.577-4.347l5.352,10.073c7.507-7.106,15.366-6.839,23.137.435-2.784,3.936-6.153,6.983-11.613,7.072-5.41.087-8.53-3.421-12.026-7.37.447,6.292-3.3,9.623-7.19,12.873-2.31,1.929-2.491,2.787-1.153,5.513a29.223,29.223,0,0,1,1.9,3.824c.2.628-.373,1.5-.6,2.261-.671-.29-1.757-.418-1.942-.9a52.136,52.136,0,0,1-2.361-7.364c-.5-2.237-.586-4.569-3.586-5.2l.283-.431" transform="translate(-109.156 -15.194)" fill="#f7f7f7"/>
    <path id="Path_684" data-name="Path 684" d="M101.335,223.044l-5.726-3.826c-11.589,7.033-17.39,5.333-23.212-6.805,3.991-3.336,11.762-3.5,16.48.279,3.672,2.944,6.785,6.576,11.282,8.421.441.181.752.7,1.1,1.086a3.088,3.088,0,0,1,.33.584l-.251.26" transform="translate(-18.005 -52.197)" fill="#f7f7f7"/>
    <path id="Path_685" data-name="Path 685" d="M588.678,165.543c-2.08-8.735,4.781-17.952,13.179-18.405,2.161-.117,2.926.551,3.116,2.721.569,6.515-2.072,11.1-8.17,13.511a69.683,69.683,0,0,1-8.125,2.174" transform="translate(-146.309 -36.59)" fill="#f7f7f7"/>
    <path id="Path_686" data-name="Path 686" d="M452.652,104.276c-1.373-8.867,8.364-16.913,18.239-15.07.421,11.555-5.786,16.676-18.239,15.07" transform="translate(-112.541 -22.119)" fill="#f7f7f7"/>
    <path id="Path_687" data-name="Path 687" d="M289.349,261.4c6.306-1.71,12.374-2.288,17.712,2.343a15.464,15.464,0,0,1,2.683,3.549c1.346,2.142,1,3.267-1.235,4.521-8.191,4.606-17.895-.519-19.16-10.413" transform="translate(-71.96 -64.697)" fill="#f7f7f7"/>
    <path id="Path_688" data-name="Path 688" d="M607.27,235.22c-1.84-4.051-3.851-7.887-2.681-12.527,1.311-5.195,6.572-8.369,10.556-9.318.361-.086,1.119.53,1.343.989a13.5,13.5,0,0,1,1.09,9.074c-1.1,5.033-5.452,10.121-10.309,11.781" transform="translate(-150.273 -53.064)" fill="#f7f7f7"/>
    <path id="Path_689" data-name="Path 689" d="M218.277,57.01c0,3.314.189,6.433-.055,9.518-.229,2.89-2.093,5.028-4.347,6.673-2.814,2.054-5.766,3.919-8.891,6.022-.692-4.56-1.312-8.874-.236-13.158a9.12,9.12,0,0,1,2.358-3.935c3.037-3.075,7.049-4.155,11.171-5.119" transform="translate(-50.776 -14.178)" fill="#f7f7f7"/>
    <path id="Path_690" data-name="Path 690" d="M468.514,35.013c3-.154,5.734-.616,8.4-.364,5.654.533,9.812,5.494,10.356,11.87.05.582.02,1.171.086,1.749.143,1.244-.4,1.693-1.633,1.8A15.691,15.691,0,0,1,468.9,37.335c-.119-.625-.209-1.255-.385-2.322" transform="translate(-116.518 -8.599)" fill="#f7f7f7"/>
    <path id="Path_691" data-name="Path 691" d="M598.753,88.053c7.118-.667,13.886,5.272,14.233,12.111a12.988,12.988,0,0,0,.238,2.113,4.067,4.067,0,0,1-5.591,4.6c-6.042-2.21-8.805-6.752-9.117-12.948-.1-1.968.15-3.954.237-5.873" transform="translate(-148.843 -21.886)" fill="#f7f7f7"/>
    <path id="Path_692" data-name="Path 692" d="M378.181,313c5.8.337,6.66.736,5.105,6.237-2.018,7.139-11.261,10.871-17.562,7.412-1.4-.77-1.981-1.518-1.114-3.188,3.051-5.877,7.276-10.03,13.572-10.461" transform="translate(-90.576 -77.843)" fill="#f7f7f7"/>
    <path id="Path_693" data-name="Path 693" d="M380.094,12.286c2.065,4.5,3,8.976,1.69,13.744a13.172,13.172,0,0,1-6.107,7.786,2.535,2.535,0,0,1-3.844-.975c-3.035-4.925-3.734-10.194.039-14.855a19.25,19.25,0,0,1,8.223-5.7" transform="translate(-91.842 -3.055)" fill="#f7f7f7"/>
    <path id="Path_694" data-name="Path 694" d="M460.767,49.17c-11.49,1.286-17.387-2.693-18.721-13.789,6.291-2.986,10.3-1.959,15.073,3.458,2.528,2.871,3.506,6.425,3.648,10.332" transform="translate(-109.936 -8.389)" fill="#f7f7f7"/>
    <path id="Path_695" data-name="Path 695" d="M598.564,254.147c-11.706,1.346-17.891-4.4-16.859-16.767,11.4.438,15.964,4.792,16.859,16.767" transform="translate(-144.641 -59.036)" fill="#f7f7f7"/>
    <path id="Path_696" data-name="Path 696" d="M172.758,195.442c-8.2-5.483-8.031-17.507,0-22.57a2.221,2.221,0,0,1,3.452.885c3.644,6.128,4.489,9.676.855,15.792-1.217,2.046-2.811,3.868-4.306,5.893" transform="translate(-41.451 -42.871)" fill="#f7f7f7"/>
    <path id="Path_697" data-name="Path 697" d="M408.776,146.755c-12.511.374-17.221-5.867-15.421-17.973,9.119-.448,17.626,9.466,15.421,17.973" transform="translate(-97.734 -32.024)" fill="#f7f7f7"/>
    <path id="Path_698" data-name="Path 698" d="M289.477,220.261c-4.564-7.357.354-17.5,9.239-19.088,4.176-.748,4.046-.7,4.222,3.448.307,7.23-3.078,11.78-9.67,14.25-1.152.431-2.279.929-3.422,1.384a1.043,1.043,0,0,1-.368.006" transform="translate(-71.561 -49.939)" fill="#f7f7f7"/>
    <path id="Path_699" data-name="Path 699" d="M786.567,174.7c-3.434,6.424-11.351,10.392-17.315,8.336-6.931-2.39-6.581-3.912-2.277-8.312,4.868-4.977,9.276-5.6,15.481-2.452,1.379.7,2.672,1.571,4.111,2.427" transform="translate(-189.972 -42.363)" fill="#f7f7f7"/>
    <path id="Path_700" data-name="Path 700" d="M675.156,152.326c-1.608-8.749,5.808-16.981,15.515-17.38,4.488,9.309-3.2,17.988-15.515,17.38" transform="translate(-167.855 -33.561)" fill="#f7f7f7"/>
    <path id="Path_701" data-name="Path 701" d="M487.024,150.456c-4.5-10.461-.859-16.918,9.122-21.349a14.623,14.623,0,0,1,1.307,14.074c-1.944,4.744-4.751,6.639-10.428,7.275" transform="translate(-120.648 -32.109)" fill="#f7f7f7"/>
    <path id="Path_702" data-name="Path 702" d="M695.6,203.393c5.527-11.076,12.612-11.75,22.873-5.645-2.371,8.739-14.722,11.842-22.873,5.645" transform="translate(-172.994 -48.224)" fill="#f7f7f7"/>
    <path id="Path_703" data-name="Path 703" d="M674.308,63.667c6.689,10.21,4.8,17.164-6.149,23.109-5.861-7.366-2.715-19.33,6.149-23.109" transform="translate(-165.427 -15.834)" fill="#f7f7f7"/>
    <path id="Path_704" data-name="Path 704" d="M432.827,134.062c4.754,9.982,4.9,15.441-5.255,22.879-7.687-8.687-6.4-17.44,5.255-22.879" transform="translate(-105.133 -33.341)" fill="#f7f7f7"/>
    <path id="Path_705" data-name="Path 705" d="M364.221,310.981c-10.78,5.867-17.738,3.03-22.148-8.176,7.579-5.3,19.952-.766,22.148,8.176" transform="translate(-85.073 -74.745)" fill="#f7f7f7"/>
    <path id="Path_706" data-name="Path 706" d="M461.48,166.95c-4.181-7.6-.736-17.675,6.935-20.773a2.274,2.274,0,0,1,3.108.9c2.317,3,3.073,10.679-.946,14.655a22.331,22.331,0,0,1-9.1,5.221" transform="translate(-114.322 -36.285)" fill="#f7f7f7"/>
    <path id="Path_707" data-name="Path 707" d="M356.5,78.565c4.867-7.9,17.275-8.385,23.426-1.029-5.882,8.76-13.792,10.358-23.426,1.029" transform="translate(-88.661 -17.985)" fill="#f7f7f7"/>
    <path id="Path_708" data-name="Path 708" d="M323.234,18.976c5.86,9.6,4.4,16.141-5.062,23.136-6.743-7.435-7.381-15.738,5.062-23.136" transform="translate(-77.945 -4.719)" fill="#f7f7f7"/>
    <path id="Path_709" data-name="Path 709" d="M620.911,80.545c-5.784-6.559-4.437-18.034,2.833-23.462,3.095,2.485,5.747,5.191,6.087,9.56.541,6.962-4.119,10.436-8.92,13.9" transform="translate(-153.523 -14.196)" fill="#f7f7f7"/>
    <path id="Path_710" data-name="Path 710" d="M628.624,244.438c.612,8.99-9.053,16.562-18.386,14.528-.431-10,4.361-16.9,18.386-14.528" transform="translate(-151.758 -60.674)" fill="#f7f7f7"/>
    <path id="Path_711" data-name="Path 711" d="M417.464,61.94c4.844.127,9.007,3.2,11.234,8.431,2.318,5.451,1.278,7.014-4.554,6.189a27.973,27.973,0,0,1-8.076-2.469c-3.227-1.55-4.775-4.649-5.659-8.027a2.44,2.44,0,0,1,1.926-3.122,48.408,48.408,0,0,1,5.129-1" transform="translate(-102.041 -15.404)" fill="#f7f7f7"/>
    <path id="Path_712" data-name="Path 712" d="M774.143,282.469c-2.587,9.495-14.611,14.124-22.092,8.505,4.324-10.838,10.392-13.878,22.092-8.505" transform="translate(-187.033 -69.604)" fill="#f7f7f7"/>
    <path id="Path_713" data-name="Path 713" d="M286.014,114.62c7.351-9.06,14.3-10.194,23.732-.842-3.664,6.3-16.581,9.179-23.732.842" transform="translate(-71.131 -26.679)" fill="#f7f7f7"/>
    <path id="Path_714" data-name="Path 714" d="M641.8,209.414c-10.612,3.041-15.917.6-21.24-9.653,7.634-5.2,18.931-4.456,21.24,9.653" transform="translate(-154.332 -48.944)" fill="#f7f7f7"/>
    <path id="Path_715" data-name="Path 715" d="M130.489,134.253c9.039,8.321,9.662,14.623,2.425,23.653-9.66-6.1-10.565-14.625-2.425-23.653" transform="translate(-31.079 -33.388)" fill="#f7f7f7"/>
    <path id="Path_716" data-name="Path 716" d="M768.22,259.72c7.506-10.474,14.723-9.943,23.408-3.155-3.8,8.609-16.688,10.383-23.408,3.155" transform="translate(-191.054 -62.58)" fill="#f7f7f7"/>
    <path id="Path_717" data-name="Path 717" d="M293.6,289.576c7.587-5.524,19.42-1.772,22.233,6.753.325.981.125,1.412-.826,1.724-1.663.545-3.273,1.261-4.95,1.76a10.539,10.539,0,0,1-11.9-3.563c-1.688-2.032-3.005-4.373-4.557-6.675" transform="translate(-73.018 -71.37)" fill="#f7f7f7"/>
    <path id="Path_718" data-name="Path 718" d="M661.138,128.477c-5.808,7.509-18.851,5.935-22.615-2.3a1.659,1.659,0,0,1,.616-2.288c4.628-4.016,12.237-4.111,17.494-.006a46.22,46.22,0,0,1,4.5,4.593" transform="translate(-158.741 -30.053)" fill="#f7f7f7"/>
    <path id="Path_719" data-name="Path 719" d="M400.41,45.975c1.978-1.136,3.811-2.232,5.685-3.255a12.683,12.683,0,0,1,15.961,3.071c1.594,1.912,1.591,2.55-.316,4.114a14.413,14.413,0,0,1-14.925,2.658,10.377,10.377,0,0,1-6.4-6.587" transform="translate(-99.581 -10.23)" fill="#f7f7f7"/>
    <path id="Path_720" data-name="Path 720" d="M203.458,119.11c6.025,10.686,4.24,15.831-4.155,23.239-8.588-6.131-6.793-16.457,4.155-23.239" transform="translate(-48.219 -29.622)" fill="#f7f7f7"/>
    <path id="Path_721" data-name="Path 721" d="M539.86,303.216c5.456-10.511,14.231-11.759,23.349-3.388-6.605,8.1-12.968,9.925-23.349,3.388" transform="translate(-134.262 -73.2)" fill="#f7f7f7"/>
    <path id="Path_722" data-name="Path 722" d="M262.868,79.677c10.927,7.8,10.152,12.679,6.39,22.586-11.079-3.022-14-13.33-6.39-22.586" transform="translate(-64.32 -19.815)" fill="#f7f7f7"/>
    <path id="Path_723" data-name="Path 723" d="M413.773,266.288c10.053-4.9,16.594-2.965,22.486,6.654-8.654,7.308-17.687,4.976-22.486-6.654" transform="translate(-102.904 -65.579)" fill="#f7f7f7"/>
    <path id="Path_724" data-name="Path 724" d="M586.857,95.882c-7.933,9.291-14.391,9.681-23.616,1.424,3.86-8.128,17.59-8.956,23.616-1.424" transform="translate(-140.076 -22.555)" fill="#f7f7f7"/>
    <path id="Path_725" data-name="Path 725" d="M234.142,175.9c11.3-.12,17.936,5.795,17.742,15.688-12.391,2.194-18.135-4.11-17.742-15.688" transform="translate(-58.226 -43.745)" fill="#f7f7f7"/>
    <path id="Path_726" data-name="Path 726" d="M222.157,161.958c2.361,8.647-4.633,17.52-14.509,18.558-2.89-11.278,1.261-17.959,14.509-18.558" transform="translate(-51.424 -40.278)" fill="#f7f7f7"/>
    <path id="Path_727" data-name="Path 727" d="M833.8,214.531c-7.625,9.49-13.167,10.35-22.912,5.128,5.115-11.552,14.81-12.879,22.912-5.128" transform="translate(-201.666 -52.14)" fill="#f7f7f7"/>
    <path id="Path_728" data-name="Path 728" d="M515.558,285.017c8.113,3.554,9.649,15.865,2.916,23.372-10.651-6.926-10.515-14.031-2.916-23.372" transform="translate(-126.868 -70.883)" fill="#f7f7f7"/>
    <path id="Path_729" data-name="Path 729" d="M208.138,207.557c-1.355-11.542,1.475-17.284,15.124-18.5.927,10.695-2.421,16.695-15.124,18.5" transform="translate(-51.687 -47.018)" fill="#f7f7f7"/>
    <path id="Path_730" data-name="Path 730" d="M589.465,193.069c-9.72,1.384-17.508-3.242-16.2-17,11.31.783,15.91,4.888,16.2,17" transform="translate(-142.533 -43.788)" fill="#f7f7f7"/>
    <path id="Path_731" data-name="Path 731" d="M393.7,213.089c-12.254,6.879-19.465.3-21.532-9.519,10.734-3.067,16.278-1.339,21.532,9.519" transform="translate(-92.557 -50.291)" fill="#f7f7f7"/>
    <path id="Path_732" data-name="Path 732" d="M163.879,120.856c11.411-1.438,17.394,3.116,19.053,14.419-12.553,2.2-17.517-2.189-19.053-14.419" transform="translate(-40.756 -29.992)" fill="#f7f7f7"/>
    <path id="Path_733" data-name="Path 733" d="M101.073,182.173c-9.718-6.509-10.529-14.233-2.46-23.436,8.792,7.15,10.05,14.678,2.46,23.436" transform="translate(-23.158 -39.477)" fill="#f7f7f7"/>
    <path id="Path_734" data-name="Path 734" d="M715.142,165.187c.513-12.077,4.614-16,15.734-17.387,3.218,11.891-4.909,18.515-15.734,17.387" transform="translate(-177.854 -36.757)" fill="#f7f7f7"/>
    <path id="Path_735" data-name="Path 735" d="M245.087,79.546c-4.748-10.85.432-19.065,12.515-20.1,1.139,10.9-.18,15.61-12.515,20.1" transform="translate(-60.518 -14.784)" fill="#f7f7f7"/>
    <path id="Path_736" data-name="Path 736" d="M717.538,274.148c8.5-7.913,16.464-6.649,23.3,3.7-8.886,6.14-15.832,6.327-23.3-3.7" transform="translate(-178.45 -66.905)" fill="#f7f7f7"/>
    <path id="Path_737" data-name="Path 737" d="M217.781,108.332c8.194-6.915,16.3-5.738,23.328,3.292-8.476,8.094-15.724,7.1-23.328-3.292" transform="translate(-54.162 -25.835)" fill="#f7f7f7"/>
    <path id="Path_738" data-name="Path 738" d="M722.156,127.3c2.687,8.115-.865,18.6-15.259,17.35-1.978-8.493,6.064-17.715,15.259-17.35" transform="translate(-175.728 -31.657)" fill="#f7f7f7"/>
    <path id="Path_739" data-name="Path 739" d="M517.23,42.259c-7.473-9.164-7.49-14.167-.738-23.381,7.406,3.321,12.815,13.557.738,23.381" transform="translate(-127.214 -4.695)" fill="#f7f7f7"/>
    <path id="Path_740" data-name="Path 740" d="M293.718,65.256c-7.7-8.448-5.946-17.339,5.4-23.048,5.959,11.242,3.235,16.021-5.4,23.048" transform="translate(-71.879 -10.497)" fill="#f7f7f7"/>
    <path id="Path_741" data-name="Path 741" d="M495.2,183.047c-8.638,8.15-16.653,8.207-23.759.251,8.346-9.123,15.176-9.228,23.759-.251" transform="translate(-117.246 -43.866)" fill="#f7f7f7"/>
    <path id="Path_742" data-name="Path 742" d="M642.2,106.554A15.378,15.378,0,0,1,645.233,85.7c1.906-1.506,3.31-1.35,4.817.536a11.466,11.466,0,0,1,.458,13.807,19.116,19.116,0,0,1-8.311,6.514" transform="translate(-159.025 -21.06)" fill="#f7f7f7"/>
    <path id="Path_743" data-name="Path 743" d="M493.328,23.628c-2.554-3.944-5.692-7.311-5.693-12.269,0-4.316,2.415-7.588,4.506-10.987a2.505,2.505,0,0,1,2.39-.128c3.022,3.378,6.2,6.712,5.8,11.834a11.8,11.8,0,0,1-2.8,6.7c-1.3,1.6-2.7,3.124-4.21,4.853" transform="translate(-121.273 0)" fill="#f7f7f7"/>
    <path id="Path_744" data-name="Path 744" d="M776.408,198.289c-2.982,7.878-10.072,13.106-22.263,7.1,4.058-10.52,10.9-13.394,22.263-7.1" transform="translate(-187.554 -48.491)" fill="#f7f7f7"/>
    <path id="Path_745" data-name="Path 745" d="M762.276,310.056c-6.708,8.774-16,9.945-23.4,2.948,5.491-8.6,12.683-12.1,23.4-2.948" transform="translate(-183.756 -75.768)" fill="#f7f7f7"/>
    <path id="Path_746" data-name="Path 746" d="M176.253,60.234c9.634,3.987,12.719,11.975,8.464,21.913-10.22-2.542-15.005-9.931-8.464-21.913" transform="translate(-43.089 -14.98)" fill="#f7f7f7"/>
    <path id="Path_747" data-name="Path 747" d="M784.652,238.69c8.1-7.6,16.88-7.84,23.306,3.7-9.568,5.75-15.131,5.587-23.306-3.7" transform="translate(-195.141 -58.022)" fill="#f7f7f7"/>
    <path id="Path_748" data-name="Path 748" d="M763.577,163.871c-5.142-10.886-.076-20.192,11.173-20.674,1.9,10.931.512,15.266-11.173,20.674" transform="translate(-189.399 -35.613)" fill="#f7f7f7"/>
    <path id="Path_749" data-name="Path 749" d="M678.47,293.756c-10.465,3.236-14.736,2.577-21.743-8.065,3.956-3.016,8.074-5.16,13.225-3.108,5.051,2.01,7.24,6.161,8.517,11.173" transform="translate(-163.326 -70.076)" fill="#f7f7f7"/>
    <path id="Path_750" data-name="Path 750" d="M412.544,206.7c-9.4-.295-16.928-4.581-13.738-19.179,12,2.454,14.729,7.965,13.738,19.179" transform="translate(-98.997 -46.636)" fill="#f7f7f7"/>
    <path id="Path_751" data-name="Path 751" d="M781.314,351.075c-11,2.225-17.674-1.44-20.536-11.282,11.693-6.025,19.212.772,20.536,11.282" transform="translate(-189.203 -83.943)" fill="#f7f7f7"/>
    <path id="Path_752" data-name="Path 752" d="M239.573,195.255c10.553,5.591,13.089,10.584,9.046,21.83-10.841-3.337-14.988-9.928-9.046-21.83" transform="translate(-58.905 -48.559)" fill="#f7f7f7"/>
    <path id="Path_753" data-name="Path 753" d="M720.724,363.453c10.434,4.7,13.475,11.475,7.031,22.6-9.327-5.5-12.848-12.027-7.031-22.6" transform="translate(-178.537 -90.39)" fill="#f7f7f7"/>
    <path id="Path_754" data-name="Path 754" d="M625.6,168.817c-8.788-4.921-11.519-15.428-5.934-22.558,11.453,4.868,13.025,14,5.934,22.558" transform="translate(-153.386 -36.374)" fill="#f7f7f7"/>
    <path id="Path_755" data-name="Path 755" d="M712.111,238.413c5.967,10.272,4.2,16.082-4.974,23.14-6.481-7.159-7.7-15.256,4.974-23.14" transform="translate(-174.677 -59.293)" fill="#f7f7f7"/>
    <path id="Path_756" data-name="Path 756" d="M417.89,120.533c5.249-9.083,13.975-9.651,20.6-3.307,2.294,2.2,1.974,4.062-.566,5.923-5.212,3.819-12.995,3.211-18.765-1.473-.446-.362-.856-.769-1.27-1.143" transform="translate(-103.928 -28.103)" fill="#f7f7f7"/>
    <path id="Path_757" data-name="Path 757" d="M432.866,90.989c-6.939,7.821-13.945,8.053-23.462.865,4.043-7.913,13.491-11.32,23.462-.865" transform="translate(-101.818 -21.001)" fill="#f7f7f7"/>
    <path id="Path_758" data-name="Path 758" d="M60.607,187.48c7.121-8.243,14.368-8.635,23.547-1.275-5.439,8.225-13.149,11.351-23.547,1.275" transform="translate(-15.073 -45.008)" fill="#f7f7f7"/>
    <path id="Path_759" data-name="Path 759" d="M262.717,134.861c7.39-12,18.391-8.352,23.354-.661-8.865,7.181-13.457,7.889-23.354.661" transform="translate(-65.337 -31.61)" fill="#f7f7f7"/>
    <path id="Path_760" data-name="Path 760" d="M386.023,165.684c5.939-10.832,11.331-12.218,22-8.442-2.018,8.788-8.635,15.446-22,8.442" transform="translate(-96.003 -38.633)" fill="#f7f7f7"/>
    <path id="Path_761" data-name="Path 761" d="M162.79,150.011c4.171-4.572,11.745-6.376,17.231-4.092,2.473,1.03,5.252,2.7,5.208,5.244-.045,2.615-2.8,4.33-5.392,5.322-6.039,2.309-13.626-.547-17.047-6.475" transform="translate(-40.485 -36.044)" fill="#f7f7f7"/>
    <path id="Path_762" data-name="Path 762" d="M139.511,196.407c-.82-8.655,3.312-17.635,18.085-14.866.423,9.262-5.379,14.06-18.085,14.866" transform="translate(-34.671 -45.022)" fill="#f7f7f7"/>
    <path id="Path_763" data-name="Path 763" d="M744.082,153.55c9.393,5.264,12.254,7.891,9.813,20.958-3.817.713-8.212-1.636-10.629-5.681a13.517,13.517,0,0,1,.815-15.277" transform="translate(-184.357 -38.187)" fill="#f7f7f7"/>
    <path id="Path_764" data-name="Path 764" d="M521.811,60.133c-1.382-6.563,2.961-13.614,9.262-15.149a32.151,32.151,0,0,1,4.761-.925c2.054-.18,2.846.634,2.992,2.658.5,6.952-4.735,12.738-12.234,13.491a29.657,29.657,0,0,1-3.113.088,16.7,16.7,0,0,1-1.667-.164" transform="translate(-129.709 -10.952)" fill="#f7f7f7"/>
    <path id="Path_765" data-name="Path 765" d="M347.586,63.169c4.3,9.968,3.049,14.652-6.007,22.561-3.094-3.722-5.826-7.574-4.5-12.77,1.378-5.394,5.28-8.249,10.506-9.791" transform="translate(-83.745 -15.71)" fill="#f7f7f7"/>
    <path id="Path_766" data-name="Path 766" d="M386.386,231.335c4.9-10.623,11.652-13.507,21.4-9.2-1.867,8.026-7.8,15.966-21.4,9.2" transform="translate(-96.093 -54.766)" fill="#f7f7f7"/>
    <path id="Path_767" data-name="Path 767" d="M353.388,40.708c10.956-.681,16.8,3.059,17.769,15.386-11.261,2.083-17.436-3.226-17.769-15.386" transform="translate(-87.887 -10.105)" fill="#f7f7f7"/>
    <path id="Path_768" data-name="Path 768" d="M426.985,19.458c-.014,9.595-6.835,14.762-18.49,14.009-.51-9.9,5.167-16.981,18.49-14.009" transform="translate(-101.584 -4.669)" fill="#f7f7f7"/>
    <path id="Path_769" data-name="Path 769" d="M169.738,235.148c-2.074-.485-4.142-1-6.223-1.446-1.309-.284-1.639-1.1-1.431-2.294.881-5.084,4.456-7.728,8.826-9.52a12.089,12.089,0,0,1,8.04-.244c2.7.768,3.818,2.648,2.6,5.132-2.287,4.67-6.025,8.354-11.814,8.373" transform="translate(-40.296 -54.981)" fill="#f7f7f7"/>
    <path id="Path_770" data-name="Path 770" d="M651.644,301.989c-7.2,5.6-18.882,2.068-21.085-6.166-.381-1.424-.143-2.212,1.248-2.9,6.776-3.367,12.907-1.784,17.029,4.532.955,1.464,1.842,2.973,2.808,4.537" transform="translate(-156.778 -72.419)" fill="#f7f7f7"/>
    <path id="Path_771" data-name="Path 771" d="M668.658,269.616c-.687-10.077,4.544-17,17.59-15.02-1.141,11.986-6.19,15.671-17.59,15.02" transform="translate(-166.279 -63.233)" fill="#f7f7f7"/>
    <path id="Path_772" data-name="Path 772" d="M275.057,184.842c9.209,5,10.847,12.517,5,22.976-11.571-6.265-11.417-13.415-5-22.976" transform="translate(-67.32 -45.97)" fill="#f7f7f7"/>
    <path id="Path_773" data-name="Path 773" d="M531.134,259.548c2.074,2.969,4.174,5.6,5.838,8.481a7.487,7.487,0,0,1,.109,7.139c-1.336,2.811-2.69,5.613-4.044,8.436-10.068-6.823-10.532-14.291-1.9-24.057" transform="translate(-130.577 -64.549)" fill="#f7f7f7"/>
    <path id="Path_774" data-name="Path 774" d="M827.306,308.675c3.181-.431,6.173-1.155,9.171-1.176,5.926-.041,10.521,5.309,10.124,11.242a2.487,2.487,0,0,1-2.116,2.557c-4.929,1.346-8.929-.361-12.4-3.724a17.02,17.02,0,0,1-4.78-8.9" transform="translate(-205.749 -76.474)" fill="#f7f7f7"/>
    <path id="Path_775" data-name="Path 775" d="M108.26,377.576c-.347,11.992-6.663,16.879-18.686,14.585-1-8.59,10.147-17.364,18.686-14.585" transform="translate(-22.261 -93.772)" fill="#f7f7f7"/>
    <path id="Path_776" data-name="Path 776" d="M62.1,381.74c.039-8.973,9.284-16.463,18.334-14.855C81.8,376.942,75.913,384.6,62.1,381.74" transform="translate(-15.444 -91.189)" fill="#f7f7f7"/>
    <path id="Path_777" data-name="Path 777" d="M73.458,322.637c-1.373-.416-3.67-1.043-5.9-1.852a1.8,1.8,0,0,1-.841-1.546c2.391-6.918,9.928-11.706,16.2-10.41,4.666.965,5.726,2.914,3.4,7.068-2.569,4.6-6.823,6.334-12.86,6.741" transform="translate(-16.587 -76.752)" fill="#f7f7f7"/>
    <path id="Path_778" data-name="Path 778" d="M110.421,331.522c-5.8,8.135-17.513,7.621-22.269-.665-.91-1.585-.623-2.834.868-3.623,5.979-3.168,9.8-4.266,16-.05,1.868,1.27,3.539,2.83,5.4,4.337" transform="translate(-21.794 -80.683)" fill="#f7f7f7"/>
    <path id="Path_779" data-name="Path 779" d="M159.463,333.348a96.648,96.648,0,0,1,6.568-7.436,8.2,8.2,0,0,1,4.666-2.006c3.795-.288,7.626-.092,11.527-.092-2.294,12.59-11.575,16.121-22.761,9.534" transform="translate(-39.658 -80.515)" fill="#f7f7f7"/>
    <path id="Path_780" data-name="Path 780" d="M142.947,382.939c-.264,11.037-5.842,17.2-18.581,14.616-.1-9.761,7.221-15.575,18.581-14.616" transform="translate(-30.929 -95.21)" fill="#f7f7f7"/>
    <path id="Path_781" data-name="Path 781" d="M117.908,318.908c-5.754-10.412-4.047-17.044,5.778-23.033,6.836,9.631,5.231,16.647-5.778,23.033" transform="translate(-28.505 -73.583)" fill="#f7f7f7"/>
    <path id="Path_782" data-name="Path 782" d="M97.647,296.648c-9.534,8.354-19.053,3.971-22.568-6.571,9.939-3.94,14.908-3.811,22.568,6.571" transform="translate(-18.672 -71.547)" fill="#f7f7f7"/>
    <path id="Path_783" data-name="Path 783" d="M63.5,355.813c-5.061,7.481-15.182,10.258-23.256-2.519,6.077-5.953,18.338-4.626,23.256,2.519" transform="translate(-10.009 -86.929)" fill="#f7f7f7"/>
    <path id="Path_784" data-name="Path 784" d="M68.214,333.615c10.844.323,16.973,6.638,16.176,16.663-11.626,2.028-17.644-4.778-16.176-16.663" transform="translate(-16.911 -82.969)" fill="#f7f7f7"/>
    <path id="Path_785" data-name="Path 785" d="M175.831,313.738c-10.773,7.138-19.129,5.428-22.964-4.614,8.584-4.859,16.012-6.127,22.964,4.614" transform="translate(-38.018 -75.98)" fill="#f7f7f7"/>
    <path id="Path_786" data-name="Path 786" d="M214.76,328.544c-8.7-8.3-6.477-18.018,4.019-23.174,5.6,9.775,5.164,15.091-4.019,23.174" transform="translate(-52.073 -75.945)" fill="#f7f7f7"/>
    <path id="Path_787" data-name="Path 787" d="M595.221,328.829l1.431-4.062c.5.9,1.086,1.478.984,1.888-.138.555-.77,1.02-1.258,1.445a6.93,6.93,0,0,1-1.2.691l.041.038" transform="translate(-148.02 -80.769)"/>
    <path id="Path_788" data-name="Path 788" d="M601.418,318.475a4.81,4.81,0,0,1,.7.821c.86,1.637,2.4,2.041,4.4,2.23-2.782.568-4.565-.279-5.177-2.253-.076-.245.083-.563.133-.846l-.06.048" transform="translate(-149.548 -79.192)" fill="#fff"/>
    <path id="Path_789" data-name="Path 789" d="M640.885,302.885a6.432,6.432,0,0,1,6.02,3.814,4.861,4.861,0,0,1-.911,5.614c-3.459,3.8-9.993,2.59-11.667-1.611-1.147-2.878.442-6.092,3.932-7.321a17.025,17.025,0,0,1,2.627-.5m-.221,10.555c3.135-.017,5.258-1.923,5.258-4.72,0-2.816-2.182-4.654-5.5-4.629-2.813.022-5.117,2.125-5.07,4.626.053,2.8,2.232,4.741,5.307,4.723" transform="translate(-157.664 -75.327)" fill="#fff"/>
    <path id="Path_790" data-name="Path 790" d="M659.63,305.5a6.275,6.275,0,0,1,5.456,3.79c.625,1.373-.2,3.407-1.9,4.681-2.813,2.108-8.191.349-9.188-3.005-.754-2.539,1.43-5.207,4.48-5.463.264-.023.533,0,1.149,0m-.371.8a3.871,3.871,0,0,0-4.208,2.463,3.425,3.425,0,0,0,.842,3.794,5.229,5.229,0,0,0,6.823.638,3.973,3.973,0,0,0,1.331-2.366c.3-2.806-1.63-4.532-4.788-4.529" transform="translate(-162.611 -75.975)" fill="#fff"/>
    <path id="Path_791" data-name="Path 791" d="M627.573,309.836c-.778,1.262-1.216,2.542-2.1,3.293a6.282,6.282,0,0,1-6.657,1.162c-3.193-1.228-3.957-4.394-1.627-6.889a6.3,6.3,0,0,1,8.27-.829c.9.721,1.335,2.016,2.116,3.264m-6.3,4.192c.266,0,.533.016.8,0,2.507-.171,5.392-3.325,3.663-5.742a6.241,6.241,0,0,0-3.162-2.134,4.636,4.636,0,0,0-4.839,1.692,3.322,3.322,0,0,0-.559,3.97,4.26,4.26,0,0,0,4.1,2.217" transform="translate(-153.156 -75.948)" fill="#fff"/>
    <path id="Path_792" data-name="Path 792" d="M676.811,318.76c-1.636.034-3.424-1.417-3.493-2.834a2.427,2.427,0,0,1,2.434-2.219,3.768,3.768,0,0,1,3.243,3.174,2.115,2.115,0,0,1-2.183,1.879m.1-1.149c.155-.193.923-.943.831-1.071a4.9,4.9,0,0,0-1.838-1.648c-.271-.119-1.367.7-1.367,1.083,0,1.043.68,1.748,2.374,1.635" transform="translate(-167.452 -78.018)" fill="#fff"/>
    <path id="Path_793" data-name="Path 793" d="M607.9,313.753a2,2,0,0,1,1.752,1.9c.151,1.4-1.93,3.169-3.476,3.107a2.017,2.017,0,0,1-2.128-2.111c.047-1.456,1.8-2.929,3.853-2.893m.454,1.781a5.081,5.081,0,0,0-1.319-.684,1.424,1.424,0,0,0-1.807,1.465c-.008.443.848,1.205,1.4,1.292,1.035.163,1.6-.582,1.729-2.072" transform="translate(-150.224 -78.029)" fill="#fff"/>
    <path id="Path_794" data-name="Path 794" d="M686.928,325.056c-2.488,2.441.276,2.78,1.628,3.689a2.139,2.139,0,0,1-2.95-.9c-.542-.926-.932-1.96-.055-2.9.229-.246.747-.222,1.133-.322l.243.432" transform="translate(-170.366 -80.733)" fill="#fff"/>
    <path id="Path_795" data-name="Path 795" d="M611.872,317.257c.905-3.5.412-4.435-3.059-5.813a3.3,3.3,0,0,1,3.477,1.14c1.074,1.538.935,3.077-.418,4.673" transform="translate(-151.41 -77.422)" fill="#fff"/>
    <path id="Path_796" data-name="Path 796" d="M671.344,316.916a2.7,2.7,0,0,1-.648-3.4,3.872,3.872,0,0,1,4.024-2.2c-2.769.873-4.339,2.429-3.376,5.593" transform="translate(-166.715 -77.422)" fill="#fff"/>
    <path id="Path_797" data-name="Path 797" d="M681.963,318.6a6.536,6.536,0,0,1-.285,1.077c-1.009,2.231-2.908,2.313-4.978,1.918a9.1,9.1,0,0,0,2.861-.656,10.213,10.213,0,0,0,2.032-2.292l.371-.047" transform="translate(-168.293 -79.235)" fill="#fff"/>
    <path id="Path_798" data-name="Path 798" d="M641.127,313.839c-3.075.017-5.254-1.922-5.307-4.723-.047-2.5,2.257-4.6,5.07-4.625,3.313-.026,5.5,1.813,5.5,4.628,0,2.8-2.123,4.7-5.258,4.72m.077-8.007c-2.338,0-4.089,1.463-4.067,3.388.021,1.815,1.835,3.309,4.006,3.3,2.246-.01,3.895-1.4,3.931-3.317a3.592,3.592,0,0,0-3.87-3.37" transform="translate(-158.126 -75.726)"/>
    <path id="Path_799" data-name="Path 799" d="M659.565,306.567c3.158,0,5.083,1.723,4.787,4.529a3.969,3.969,0,0,1-1.331,2.365,5.228,5.228,0,0,1-6.823-.638,3.425,3.425,0,0,1-.842-3.794,3.87,3.87,0,0,1,4.209-2.462m.557,6.455c1.767.019,2.959-.944,2.959-2.391,0-1.54-1.527-2.745-3.487-2.749-1.515,0-3.128,1.262-3.083,2.42.054,1.374,1.816,2.7,3.61,2.72" transform="translate(-162.916 -76.239)"/>
    <path id="Path_800" data-name="Path 800" d="M621.582,314.224a4.26,4.26,0,0,1-4.1-2.217,3.322,3.322,0,0,1,.559-3.97,4.637,4.637,0,0,1,4.839-1.692,6.241,6.241,0,0,1,3.161,2.134c1.73,2.418-1.155,5.571-3.662,5.742-.264.018-.532,0-.8,0m.09-1.3c1.584-.017,3.548-1.6,3.549-2.868,0-.993-1.883-2.554-3.1-2.569-1.539-.02-3.638,1.7-3.657,3s1.5,2.458,3.21,2.441" transform="translate(-153.46 -76.145)"/>
    <path id="Path_801" data-name="Path 801" d="M677.316,318c-1.694.113-2.373-.592-2.374-1.635,0-.388,1.1-1.2,1.367-1.083a4.9,4.9,0,0,1,1.838,1.648c.092.128-.676.878-.831,1.071" transform="translate(-167.856 -78.407)"/>
    <path id="Path_802" data-name="Path 802" d="M608.741,315.882c-.129,1.491-.694,2.235-1.729,2.072-.548-.086-1.4-.848-1.4-1.292a1.424,1.424,0,0,1,1.807-1.465,5.082,5.082,0,0,1,1.319.684" transform="translate(-150.615 -78.378)"/>
    <path id="Path_803" data-name="Path 803" d="M641.64,306.277a3.593,3.593,0,0,1,3.87,3.37c-.036,1.916-1.685,3.308-3.931,3.318-2.171.009-3.985-1.485-4.007-3.3-.022-1.925,1.729-3.383,4.068-3.388m-.732,5.526c1.382-.122,3.051-1.252,2.77-2.059a3.474,3.474,0,0,0-1.917-1.932,1.739,1.739,0,0,0-2.29,1.58c-.014.794.923,1.606,1.437,2.41" transform="translate(-158.562 -76.17)" fill="#fff"/>
    <path id="Path_804" data-name="Path 804" d="M660.6,313.462c-1.795-.02-3.556-1.347-3.61-2.721-.045-1.157,1.567-2.423,3.083-2.42,1.959,0,3.487,1.21,3.487,2.749,0,1.447-1.192,2.41-2.959,2.392m-.109-.775,1.683-1.5c-.562-.589-1.026-1.435-1.712-1.7a1.276,1.276,0,0,0-1.83,1.171c-.122,1.194.585,1.594,1.859,2.03" transform="translate(-163.39 -76.679)" fill="#fff"/>
    <path id="Path_805" data-name="Path 805" d="M622.137,313.362c-1.709.018-3.228-1.137-3.209-2.441s2.117-3.016,3.657-3c1.218.016,3.1,1.577,3.1,2.569,0,1.264-1.965,2.852-3.549,2.868m-.438-.831.724.044c.536-.655,1.3-1.249,1.5-1.993.089-.339-.907-1.316-1.5-1.4-.93-.133-2.05.289-1.9,1.539.074.64.765,1.209,1.177,1.81" transform="translate(-153.926 -76.58)" fill="#fff"/>
    <path id="Path_806" data-name="Path 806" d="M661.663,627.6a10.553,10.553,0,0,0-1.968-.372c-14.125-.021-28.25.025-42.374-.028-10.955-.041-21.909-.182-32.863-.312-5.125-.06-10.249-.211-15.372-.3-6.729-.113-13.457-.2-20.185-.309a1.308,1.308,0,0,1-1.033-.473c2.817-.56,5.623-1.179,8.451-1.666,3.554-.614,7.119-1.19,10.695-1.653a84.116,84.116,0,0,1,10.286-1.01c8.087-.041,15.348-2.683,22.272-6.522,2.581-1.431,5.047-3.071,7.566-4.615l-.223-.4a11.614,11.614,0,0,0-1.185.592c-7.04,4.536-14.515,8.018-22.9,9.132-2.128.282-4.318.071-6.478.14-1.647.053-3.3.133-4.934.3-3.488.349-6.986.655-10.451,1.17-6.029.895-12.076,1.74-18.042,2.968a90.031,90.031,0,0,1-18.8,2.1c-27.232-.157-54.464-.011-81.7-.128a47.458,47.458,0,0,1-14.768-2.123c-6.163-2.037-9.687-6.426-10.835-12.633a73.234,73.234,0,0,1-.948-10.611,42.49,42.49,0,0,1,.327-8.847c1.1-6.24,3.717-11.727,9.037-15.614,5.4-3.949,11.641-5.512,18.1-6.493,6.191-.941,12.388-1.843,18.569-2.841,6.482-1.048,12.952-2.173,19.422-3.3,5.956-1.034,11.9-2.113,17.855-3.167a25.233,25.233,0,0,0,5.034-1.249c-1.412-.408-2.83-.8-4.235-1.228-5.543-1.706-10.664-4.156-14.114-9.044a17.338,17.338,0,0,1-3.081-10.11c-.008-5.019.144-10.038.283-15.055.159-5.759.39-11.517.569-17.275.122-3.947.252-7.894.3-11.842.126-9.509.367-19.021.251-28.527-.075-6.109-.822-12.206-1.047-18.318-.211-5.742-.565-11.543,2.158-16.943,2.161-4.286,5.7-7.121,9.816-9.293,9.473-5,19.656-7.961,30.013-10.513a135.1,135.1,0,0,0,18.225-5.651c5.45-2.2,8.768-6.715,10.106-12.638-3.167.633-5.016-.361-6.537-3.565a28.671,28.671,0,0,1-2.53-10.478,37.621,37.621,0,0,0-3.092-13.1,26.189,26.189,0,0,1-1.914-14.632,27.94,27.94,0,0,1,.872-4.657c1.219-3.853,3.662-5,7.532-3.713.2.066.408.1.908.225a16.968,16.968,0,0,0-.011-2.059,41.242,41.242,0,0,1,1.283-16.864,10.128,10.128,0,0,1,.632-1.389l-.041-.038a1.565,1.565,0,0,0,2.44-.536,6.32,6.32,0,0,0,.714-3.046c.016-.27-.837-.593-1.591-1.088l3.207-4.119c-.05.284-.21.6-.134.847.613,1.973,2.4,2.821,5.177,2.253-2-.189-3.544-.593-4.4-2.23a4.776,4.776,0,0,0-.7-.821,25.049,25.049,0,0,1,2.518-3.424c5.554-5.4,12.344-8.329,19.9-9.586a32.893,32.893,0,0,1,7.4-.856,100.475,100.475,0,0,1,13.52,1.76,32.935,32.935,0,0,1,12.064,5.587,28.665,28.665,0,0,1,11.5,16.707l-1.772.574c0,.077.01.154.014.231l2.077-.092a45.819,45.819,0,0,1,1.162,6.456c.149,3.455-.058,6.928-.179,10.391-.035.983-.171,1.707,1.272,1.375a4.167,4.167,0,0,1,5.328,3.114,27.894,27.894,0,0,1,1.01,5.924,31.4,31.4,0,0,1-2.838,16.016,25.456,25.456,0,0,0-1.674,6.459c-.455,2.657-.553,5.375-.977,8.039a17.717,17.717,0,0,1-3.388,8.484,3.155,3.155,0,0,1-3.108,1.488,3.017,3.017,0,0,1-2.282-2.6c-.461-1.832-.707-3.718-1.044-5.581l-.467.032c.135,1.827.2,3.663.42,5.479a22.061,22.061,0,0,0,4.219,10.852,18.248,18.248,0,0,0,9.523,6.656c8.18,2.426,16.48,4.451,24.631,6.965,5.871,1.811,11.623,4.039,17.35,6.282A28.659,28.659,0,0,1,681.79,427.4a17.583,17.583,0,0,1,4.8,11.5c.243,3.7.15,7.432.026,11.144-.24,7.176-.615,14.348-.917,21.522-.125,2.978-.307,5.959-.29,8.937.035,5.869.154,11.738.306,17.606.167,6.444.391,12.886.625,19.327.179,4.893.241,9.8.678,14.669a34.244,34.244,0,0,1-.63,11.216,16.179,16.179,0,0,1-5.977,9.114c-3.781,3-8.3,4.412-12.712,6.08-.392.149-.779.312-1.184.474.164,1.421,1.258,1.682,2.273,1.941,12.533,3.2,25.031,6.579,37.869,8.4,5.452.775,10.925,1.4,16.383,2.139,6.565.892,13.141,1.722,19.358,4.241,8.64,3.5,13.446,9.854,14.563,19.1a32.667,32.667,0,0,1-.48,12.582c-1.973,7.321-6.6,12.575-13.089,16.18-2.906,1.615-6.107,2.7-9.175,4.02ZM628.8,539.7c.319.844.666,1.618.906,2.425a4.877,4.877,0,0,1-1.69,5,29.089,29.089,0,0,1-5.062,2.648c-6.624,2.427-13.589,3.342-20.533,4.275-3.94.53-7.9.914-11.858,1.3-4.539.442-9.077.919-13.628,1.18-3.253.187-6.525.044-9.789.046-3.279,0-3.279,0-4.307,2.941-.053.15-.072.313-.129.461-.823,2.136-1.669,2.789-3.947,2.71-1.781-.062-3.554-.324-5.33-.5l-.31.361a16.588,16.588,0,0,0,2.76,2.368c4.985,2.676,10.528,2.992,15.976,3.083a131.127,131.127,0,0,0,16.417-.876,123.335,123.335,0,0,0,16.932-2.766c7.248-1.842,14.382-4.206,21.448-6.676a86.419,86.419,0,0,0,22.359-11.146c3.794-2.74,7.29-5.781,9.172-10.194a44.937,44.937,0,0,0,1.585-5.586l4.569,1.149.205-.4-6.273-3.883c.462-3.122.995-6.258,1.379-9.413.757-6.222,1.488-12.449,2.126-18.685.588-5.752,1.063-11.516,1.544-17.278.177-2.12.308-4.249.322-6.376.035-5.481.113-10.968-.087-16.442a15.115,15.115,0,0,0-1.5-5.142,2.4,2.4,0,0,0-3.539-1.364,19.786,19.786,0,0,0-3.915,3.2c-1.461,1.569-2.682,3.362-4.019,5.074-.06-.116-.138-.2-.142-.287-.017-.373-.018-.748-.013-1.123.08-6.363-.436-12.64-2.828-18.624a20.746,20.746,0,0,0-12.77-12.179c-6.344-2.286-13.082-2.641-19.719-3.389a33.226,33.226,0,0,1-13.693-4.4c-2.267-1.365-4.578-2.578-7.465-2.147a19.639,19.639,0,0,1-4.49-.339l0-.553,7.111-2.31-.119-.577a17.593,17.593,0,0,0-10.145,1.432,17.1,17.1,0,0,1,.015-2.328c.468-3.034,1-6.058,1.491-9.086.234-1.426-.469-2.125-1.874-1.9-.734.116-1.469.235-2.208.308-5.25.515-9.828-1.334-14.148-4.059a41.841,41.841,0,0,1-9.772-8.109c-1.155-1.358-2.243-2.775-3.439-4.262-.26,1.576-.461,3.041-.745,4.49-1.653,8.431-6.352,14.321-14.683,16.817-7.778,2.33-15.664,4.3-23.482,6.5a98.649,98.649,0,0,0-21.953,8.592,25.937,25.937,0,0,0-6.3,5.049c-4.354,4.77-4.639,10.816-4.414,16.828.218,5.834,1.079,11.653,1.122,17.482.1,13.254-.089,26.511-.258,39.766-.066,5.161-.415,10.318-.6,15.479-.231,6.551-.6,13.1-.587,19.657.012,7.139,3.225,12.578,9.674,15.857,7.3,3.712,15.26,4.72,23.281,5.4,2.331.2,4.66.4,6.995.557,2.16.143,4.324.224,6.658.341,0-1.815-.068-3.435.015-5.047.14-2.724,1.891-4.064,4.541-3.4,5,1.252,9.971,2.581,14.946,3.91a16.64,16.64,0,0,0,9.161.028,71.774,71.774,0,0,1,12.175-2.231c6.08-.627,12.2-.885,18.306-1.232,1.158-.066,1.711-.439,1.576-1.618-.06-.527-.125-1.056-.22-1.578-.626-3.424.252-5.18,3.376-6.744.275-.137.525-.325,1.02-.636-.575-.026-.841-.067-1.1-.047-3.861.3-7.717.731-11.584.893-5.226.219-10.463.378-15.691.279a42.77,42.77,0,0,1-8.816-1.106c-5.973-1.389-11.744-1.808-17.193,1.736a2.035,2.035,0,0,1-1.642.025c-2.734-1.193-5.511-2.327-8.116-3.766-3.727-2.059-7.243-4.5-10.989-6.524a15.1,15.1,0,0,0-10.939-1.738c-1.592.387-3.142.947-4.853,1.472,3.778-4.77,9.136-5.756,14.547-6.717a25.064,25.064,0,0,0,.431-3.162c.049-4.307.062-8.616.01-12.922s-.162-8.642-.307-12.96c-.171-5.111-.4-10.221-.622-15.33-.071-1.593-.2-3.183-.334-4.772-.4-4.7-.829-9.408-1.223-14.113-.335-4-.14-8.1-2.335-11.729-.023-.038.08-.153.135-.251q3.983,7.209,7.946,14.388c2.426,4.4,4.925,8.742,9.152,11.744,2.367,1.681,4.839,3.234,7.819,3.3,3.138.071,6.284-.155,9.425-.277a42.136,42.136,0,0,0,14.24-3.018c6.445-2.6,10.875-7.025,12.842-13.843,1.312-4.548,2.742-9.084,5.373-13.1,1.5-2.288,3.547-2.393,5.352-.348,2.968,3.364,4.095,7.68,6.022,11.579,1.317,2.663,2.229,5.569,3.825,8.041,3.262,5.054,8.383,7.64,14.02,9.043a78.086,78.086,0,0,0,11.746,1.891,34.9,34.9,0,0,0,9.1-.205c5.225-.917,8.751-4.621,12.038-8.471,1.065-1.247,1.977-2.624,2.959-3.941l.354.194c-.448,1.606-.965,3.2-1.333,4.82-.773,3.416-1.518,6.841-2.179,10.281a43.434,43.434,0,0,0-1.1,7.39c-.06,3.667.376,7.339.5,11.013.157,4.8.209,9.607.319,14.411.01.422.168.841.177,1.264.072,3.4.593,6.827-.533,10.153-1.38,4.075-4.458,6.652-7.977,8.786-2.135,1.3-4.332,2.489-6.649,3.813M455.935,573.831c-.014-.168-.029-.337-.044-.506a17.583,17.583,0,0,1,3.394-.571c5.751.141,11.52.174,17.243.684a18.5,18.5,0,0,0,10.487-1.87c6.167-3.234,12.638-3.1,19.284-2.518a38.891,38.891,0,0,0,7.881-.563,1.968,1.968,0,0,0,1.382-1.266c.066-.488-.51-1.242-1.007-1.6-2.331-1.666-5.071-2.076-7.841-2.265-7.245-.5-14.284,1.14-21.356,2.246-9.324,1.459-18.618,3.122-27.9,4.819-7.3,1.334-14.582,2.793-21.849,4.31-4.9,1.024-9.248,3.263-12.121,7.453-4.668,6.807-5.92,14.508-4.9,22.582.654,5.176,3.195,9.207,8.1,11.4a26.683,26.683,0,0,0,15.916,1.64c4.421-.795,8.78-1.985,13.119-3.173a7.075,7.075,0,0,1,4.974.452,89.457,89.457,0,0,0,10.962,3.82c10.435,2.845,21.178,3.417,31.909,3.624,6.217.119,12.455-.4,18.67-.826,5.244-.362,10.5-.782,15.693-1.589,7.638-1.187,15.221-2.726,22.822-4.141,8.456-1.575,16.9-3.191,25.36-4.766a58.372,58.372,0,0,0,15.508-5.255c8.078-4.054,14.932-9.946,22.124-15.33,3.136-2.347,6.309-5,9.9-6.31a88.258,88.258,0,0,1,28.249-5.171,12.8,12.8,0,0,0,3.892-.674c3.04-1.074,3.978-4.208,1.151-6.387a8.21,8.21,0,0,0-1.958-1.034c-3.525-1.422-7.077-.926-10.6-.021a4.919,4.919,0,0,0-2.483,1.157c-.515.61-.453,1.706-.651,2.615-.123-.053-.471-.176-.8-.343-2.935-1.514-5.784-3.231-8.817-4.513-6.574-2.779-13.184-3.69-19.7.36-8.683,5.4-18.247,6.038-28.084,4.994a31.455,31.455,0,0,0-11.272.35,7.609,7.609,0,0,0-5.956,5.621,41.572,41.572,0,0,0-.92,6.918c-.1,1.3-.414,2.269-1.843,2.287a37.181,37.181,0,0,1-6.005-.183c-7.233-1.091-14.429-2.423-21.665-3.487-6.6-.971-13.233-1.768-19.864-2.539-5.853-.68-11.711-1.365-17.586-1.772-4.786-.332-9.6-.3-14.4-.346a22.361,22.361,0,0,1-9-1.893c-2.624-1.169-5.24-2.367-7.92-3.394-6.012-2.3-12.344-2.541-18.679-2.721-.934-.026-1.863-.2-2.8-.308m90.806-58.148c-1.01,2.7-2.185,5.274-2.928,7.964-1.436,5.194-1.144,10.217,2.221,14.753a1.965,1.965,0,0,0,2.121.865,21.584,21.584,0,0,1,6.524.039,70.935,70.935,0,0,0,18.966,1.98c3.3-.164,6.6-.166,9.9-.338,2.488-.13,4.977-.337,7.448-.645,4.59-.572,9.058-.77,12.7,3.143a23.876,23.876,0,0,0,2.317-9.165,44.814,44.814,0,0,0-3.436-20.761,3.934,3.934,0,0,1,.189-3.747,37.24,37.24,0,0,0,3.98-12.541,25.548,25.548,0,0,0-4.376-18.345,6.527,6.527,0,0,0-2.848-2.376,38,38,0,0,0-7.673-2.1,6.937,6.937,0,0,0-4.062,1.1c-1.664.962-2.963,1.168-4.593.111a3.256,3.256,0,0,0-1.679-.72c-2.512.149-5.168-.005-7.484.79a100.1,100.1,0,0,0-10.563,4.826c-4.091,1.964-7.618,4.862-12.107,6.273-4.941,1.554-8.439,5.013-9.311,10.574-.63,4.019.343,7.816,1.191,11.64.577,2.6,1.3,5.184,3.5,6.681m22.578-130.7.379-.152a2.681,2.681,0,0,0,2.735,2.293,84.412,84.412,0,0,0,10.705.6,8.114,8.114,0,0,0,6.509-3.5c1.029-1.506,1.739-3.169.853-5.094a7.284,7.284,0,0,0-7.781-3.856c-.671.167-1.34.346-2.018.475-2.715.516-4.729.1-4.913-3.028a4.72,4.72,0,0,0-.6-1.51,12.83,12.83,0,0,1-2.669.336,1.438,1.438,0,0,1-.94-1.053,2.61,2.61,0,0,1,.673-1.632,1.294,1.294,0,0,1,1.264-.107c1.4,1.493,2.938.767,4.427.364,2.146-.582,4.248-1.29,6.513-.5.443.156,1.354.068,1.487-.193.361-.712.811-1.781.52-2.338a16.158,16.158,0,0,0-2.493-2.929l-1.7,1.574c-.316-2.007-2-1.968-3.615-2.055-.265-.014-.66.066-.772-.074a17.786,17.786,0,0,1-1.089-1.669c.6-.093,1.36-.464,1.783-.231a11.292,11.292,0,0,0,6.186,1.183c2.483-.112,3.529-1.634,2.968-4.08a25.941,25.941,0,0,1-.772-5.483,107.765,107.765,0,0,1,.319-11.019,17.374,17.374,0,0,1,7.1-13.03c2.2-1.612,4.352-3.324,4.942-6.231.482-2.374.621-4.805-1.319-6.576a6.278,6.278,0,0,0-7.243-1.3,9.518,9.518,0,0,1-8.466.109,8.893,8.893,0,0,0-7.7-.11,7.682,7.682,0,0,1-5.826.524,3.546,3.546,0,0,0-3.858,1.207,10.32,10.32,0,0,1-3.79,2.534,8.755,8.755,0,0,0-4.563,4.2,14.118,14.118,0,0,1-3.671,4.5,6.262,6.262,0,0,0-3,5.318c-.05,4.621.3,9.247.5,13.871a27.771,27.771,0,0,1,.245,4.92,32.673,32.673,0,0,0,.21,10.212c.8,4.547,1.829,9.052,2.62,13.6.739,4.247,2.5,7.672,6.748,9.308,1.828.7,3.7,1.3,5.56,1.908,1.225.4,2.472.732,3.886,1.147l-.337-2.43m137.494,198.96-.09.336c-.532,0-1.066.029-1.6-.005q-4.777-.307-9.552-.64c-2.757-.194-5.524-.316-8.267-.633a73.171,73.171,0,0,0-20.224.116,55.349,55.349,0,0,0-22.6,8.772c-5.068,3.47-9.7,7.57-14.535,11.385-1.381,1.089-2.841,2.089-4.133,3.273a6.37,6.37,0,0,0-1,2.016,6.582,6.582,0,0,0,2.213.373q5.312-1.015,10.582-2.253a220.979,220.979,0,0,1,34.173-5.621c6.521-.5,13.068-.7,19.578-1.313a116.777,116.777,0,0,0,12.749-2c7.777-1.612,14.955-4.888,21.961-8.518a59.175,59.175,0,0,0,8.176-4.936c2.04-1.521,2.878-3.653.371-5.546a16.96,16.96,0,0,0-4.566-2.517,74.155,74.155,0,0,0-16.766-3.686c-5.357-.548-10.633-.028-15.924.464-4.01.372-8.005.924-12,1.464-2.992.4-5.991.808-8.942,1.426a1.826,1.826,0,0,0-.992,3.175,6.4,6.4,0,0,0,3.377,1.9c5.707.585,11.451.808,17.161,1.364,3.633.353,7.231,1.062,10.845,1.612m-196.1-9.024a21.69,21.69,0,0,0-2.285-2.371c-4.572-3.381-9.717-3.767-15.037-2.518a12.936,12.936,0,0,0-8.171,5.128c-.523.776-.439,1.96-.633,2.957a12.582,12.582,0,0,0,3.112.535c3.109-.244,6.2-.9,9.3-.991,3.881-.119,7.775.137,11.663.265,5.8.189,11.608.3,17.4.654,3.852.238,7.68.854,11.52,1.295,4.366.5,8.73,1.013,13.1,1.481a55.185,55.185,0,0,0,5.559.419c2.965.016,5.939-.036,8.893-.269a2.67,2.67,0,0,0,2.022-1.424c.144-.732-.5-1.721-1.015-2.449a9.814,9.814,0,0,0-1.791-1.564c-2.358-2.006-5.294-2.545-8.168-3.276-3.946-1-7.83-2.314-11.823-3.037a27.962,27.962,0,0,0-7.448.074c-4,.373-7.974,1.01-11.968,1.459-2.686.3-5.383.545-8.083.674a39.827,39.827,0,0,1-4.127-.279c-1.122-.065-1.879.282-1.749,1.632a7.378,7.378,0,0,1-.271,1.608M631.2,535.743c4.079-2.312,7.991-4.549,9.821-8.917a15.561,15.561,0,0,0,1-5.74c.029-2.8-.386-5.6-.539-8.41s-.239-5.635-.317-8.454c-.123-4.475-.2-8.951-.325-13.426q-.126-4.63-.325-9.257a7.59,7.59,0,0,0-.412-1.443,33.462,33.462,0,0,0-5.166,10.869,70.4,70.4,0,0,0-1.327,8.631q-.7,5.913-1.193,11.85c-.213,2.6-.214,5.213-.346,7.818-.272,5.4-.568,10.8-.869,16.479m-95.107-.165c0-1.13.006-1.764,0-2.4q-.152-13.69-.3-27.381c-.027-2.7-.013-5.4.011-8.1a26.5,26.5,0,0,0-2.3-11.458c-1.047-2.273-2.426-4.4-3.656-6.585a2.072,2.072,0,0,0-.729,1.336c-.123,2.766-.234,5.533-.307,8.3-.119,4.584-.2,9.169-.311,13.753-.087,3.517-.209,7.034-.3,10.551-.1,3.813-.346,7.632-.215,11.439.176,5.158,3.9,7.777,8.1,10.544m57.142-183.636c0,5.232,2.94,12.611,6.289,15.764,1.325,1.248,2,1.3,3.249.028a20.306,20.306,0,0,0,5.349-9.475,8.934,8.934,0,0,0-.1-4.824c-1.01-2.837-3.548-6.027-6.72-5.59a20.456,20.456,0,0,1-4.819-.255c-2.562-.269-3.247.31-3.248,2.909,0,.482,0,.962,0,1.444m-44.341-3.5c.316-2.9.019-3.756-1.43-4.3-2.969-1.113-4.96-.236-5.907,2.867a26.149,26.149,0,0,0-.473,13.057,51.792,51.792,0,0,0,2.482,7.375c1.7,4.587,1.8,9.444,2.538,14.2.528,3.411,1.311,6.8,3.969,9.349,1.319,1.264,2.5.994,3.174-.7a16.654,16.654,0,0,0,.889-8.175,5.513,5.513,0,0,0-1.824-3.625,7.962,7.962,0,0,1-3.3-4.459c-.921-2.914-1.795-5.85-2.887-8.7a29.605,29.605,0,0,1-2.308-12.286c.189-3.5,1.68-4.9,5.08-4.6M532.551,555.574a11.863,11.863,0,0,0,3.715,8.021,31.362,31.362,0,0,0,16.762,7.376,3.164,3.164,0,0,0,2.494-1.14c.647-.908.1-1.905-.751-2.767a17.563,17.563,0,0,1-3.14-3.96c-.462-.88-.752-1.252-1.756-1.369-2.71-.317-5.053-1.242-6.686-3.749a14.056,14.056,0,0,0-6.735-5.161c-2.31-.94-4.209.208-3.9,2.748m19.857-179.187c-.859-4.329-1.656-8.673-2.6-12.984a41.385,41.385,0,0,1-.714-11.8c.033-.474.1-1.283-.107-1.373a2.906,2.906,0,0,0-1.935-.267c-1.521.542-1.861,1.97-1.916,3.38a25.458,25.458,0,0,0,2.7,12.128,42.267,42.267,0,0,1,1.979,6.15c.52,1.735.809,3.57,2.587,4.767m41.068,175.346c2.24-.558,4.433-1.01,6.566-1.66,2.678-.815,2.657-.885,2.589-3.676-.068-2.826-2.292-4.447-4.917-3.585-.555.183-1.125.327-1.669.536-2.482.955-3.412,2.453-3.094,4.995.118.94.288,1.874.524,3.391M579.909,374.878a39.573,39.573,0,0,1,3.956-.865c1.542-.2,3.019-.453,3.508-2.146.282-.977-1.184-1.883-3.264-2.409-2.414-.609-4.572.229-6.756.98a1.33,1.33,0,0,0-.72.747c-.615,1.85.766,3.69,3.277,3.692M624.6,543.456l-.167-.842-20.187,2.946v2.663c7.167-.155,13.693-2.746,20.354-4.766M609.058,340.213c-.383-3.138-3.566-6.923-6.823-6.772a32.845,32.845,0,0,0-4.58.461c-.9.17-2.317.22-2.084,1.58.071.42,1.559.874,2.379.839a12.179,12.179,0,0,1,7.937,2.382,18.729,18.729,0,0,0,3.171,1.51M586.63,302.167a17.12,17.12,0,0,0-2.627.5c-3.49,1.229-5.079,4.443-3.932,7.321,1.674,4.2,8.208,5.412,11.667,1.611a4.861,4.861,0,0,0,.911-5.614,6.433,6.433,0,0,0-6.02-3.815M562.221,556.481c-2.66.18-4.794.173-6.863.535a5.173,5.173,0,0,0-2.4,1.685.994.994,0,0,0,.577,1.8,45.816,45.816,0,0,0,5.811.719,2.005,2.005,0,0,0,1.5-.973,31.357,31.357,0,0,0,1.379-3.764M585.5,464.43a3.393,3.393,0,0,0-3.324,3c.027,1.385,1.785,3.3,3.1,3.16a3.3,3.3,0,0,0,3.206-3.125,3.049,3.049,0,0,0-2.977-3.035m14.931-160.3c-.615,0-.883-.02-1.148,0-3.05.257-5.234,2.924-4.48,5.463,1,3.354,6.375,5.113,9.188,3.005,1.7-1.273,2.521-3.308,1.9-4.681a6.277,6.277,0,0,0-5.457-3.791m-22.6,4.364c-.781-1.247-1.218-2.542-2.116-3.264a6.3,6.3,0,0,0-8.27.829c-2.331,2.5-1.566,5.661,1.627,6.889a6.28,6.28,0,0,0,6.656-1.162c.887-.751,1.325-2.031,2.1-3.293M596.29,343.14c-.784,2.226-.687,2.487,1.515,2.375a30.717,30.717,0,0,0,5.476-.849,6.362,6.362,0,0,0,3.777-3.059l-3.957-.54c-1.292,4.131-4.071,4.956-6.811,2.073m10.145-2.627c-.5-.351-.888-.631-1.284-.9a9.2,9.2,0,0,0-6.489-1.592c-1.081.142-2.244.332-2.364,1.524l10.137.965m6.333-25.162a2.115,2.115,0,0,0,2.183-1.879,3.767,3.767,0,0,0-3.243-3.174,2.427,2.427,0,0,0-2.433,2.218c.07,1.418,1.857,2.868,3.494,2.835m-51.687-5.019c-2.057-.036-3.805,1.437-3.853,2.893a2.016,2.016,0,0,0,2.128,2.111c1.546.062,3.628-1.705,3.477-3.107a2,2,0,0,0-1.752-1.9m24.235,152.645c1.62,0,2.2-.308,2.155-1.091-.049-.808-1.536-2.313-2.166-1.975a3.564,3.564,0,0,0-1.843,2c-.229,1.438,1.153.934,1.854,1.067m-4.083,3.367c-.418-.348-.995-.984-1.118-.906-.814.517-1.932,1.08-2.137,1.845-.142.53.953,1.953,1.613,2.035,2.566.322.594-1.964,1.642-2.974m3.536,9.282.911-.382a10.376,10.376,0,0,0,1.54-1.929c.163-.336-.2-1.341-.443-1.387a7.055,7.055,0,0,0-2.744.017c-.3.065-.7,1-.576,1.373a12.561,12.561,0,0,0,1.313,2.307m4.727-8.636c.558,1.053-.327,2.336,1.339,2.428a2.224,2.224,0,0,0,2.073-2.026c-.007-.863-1.349-2.266-2.1-1.968-.557.222-.885,1.023-1.315,1.566m-10.052,3.943c.134,1.56.742,2.385,2.479,2.313.08-.864.158-1.713.236-2.563l-2.715.25m-.044-6.76c1.068-.943,2.077,1.235,2.79-.44.213-.5-.415-1.945-.806-2.006-1.177-.183-1.892.621-1.983,2.446M619.97,318.931l-.243-.432c-.385.1-.9.076-1.133.322-.878.941-.488,1.974.055,2.9a2.139,2.139,0,0,0,2.95.9c-1.352-.909-4.116-1.248-1.628-3.689m-28.8,144.859.3-.507-1.9-1.656-1.267,2.187.387.435,2.483-.459m-2.092,9.738c1.219-.572,2.406-.917,1.941-2.666h-2.4c.146.851.292,1.7.458,2.666m-25.21-159.084c1.353-1.6,1.491-3.136.417-4.674a3.3,3.3,0,0,0-3.476-1.14c3.471,1.379,3.965,2.316,3.059,5.814m44.167-.342c-.964-3.164.607-4.72,3.376-5.593a3.871,3.871,0,0,0-4.024,2.2,2.7,2.7,0,0,0,.648,3.4m9.04-.129-.371.047a10.212,10.212,0,0,1-2.031,2.292,9.1,9.1,0,0,1-2.861.656c2.07.394,3.969.313,4.978-1.918a6.536,6.536,0,0,0,.285-1.077" transform="translate(-103.408 -74.609)"/>
    <path id="Path_807" data-name="Path 807" d="M651.539,568.593c2.318-1.324,4.515-2.518,6.65-3.813,3.52-2.134,6.6-4.712,7.977-8.787,1.126-3.325.606-6.756.533-10.152-.009-.422-.166-.841-.176-1.264-.111-4.8-.162-9.609-.32-14.412-.12-3.673-.557-7.345-.5-11.013a43.535,43.535,0,0,1,1.1-7.391c.66-3.439,1.4-6.864,2.179-10.281.367-1.624.884-3.214,1.333-4.82l-.354-.195c-.983,1.318-1.895,2.695-2.959,3.942-3.287,3.85-6.813,7.554-12.038,8.47a34.944,34.944,0,0,1-9.1.206,78.1,78.1,0,0,1-11.745-1.891c-5.637-1.4-10.758-3.989-14.02-9.043-1.6-2.473-2.508-5.379-3.825-8.041-1.929-3.9-3.054-8.216-6.022-11.579-1.805-2.046-3.854-1.941-5.352.347-2.633,4.02-4.062,8.556-5.374,13.1-1.966,6.818-6.4,11.242-12.841,13.842a42.137,42.137,0,0,1-14.24,3.019c-3.142.122-6.288.348-9.426.277-2.979-.068-5.451-1.621-7.818-3.3-4.228-3-6.726-7.342-9.152-11.744q-3.961-7.19-7.946-14.387c-.055.1-.159.213-.135.25,2.2,3.63,2,7.731,2.334,11.73.394,4.705.823,9.408,1.224,14.113.135,1.588.264,3.18.334,4.772.225,5.109.451,10.218.622,15.329.145,4.319.255,8.639.307,12.96s.038,8.615-.011,12.922a24.935,24.935,0,0,1-.431,3.163c-5.411.961-10.769,1.947-14.547,6.717,1.711-.525,3.261-1.086,4.853-1.473a15.1,15.1,0,0,1,10.939,1.738c3.747,2.019,7.263,4.464,10.989,6.523,2.6,1.44,5.382,2.573,8.116,3.766a2.027,2.027,0,0,0,1.641-.025c5.449-3.543,11.221-3.125,17.194-1.735a42.82,42.82,0,0,0,8.816,1.105c5.228.1,10.465-.06,15.69-.279,3.868-.162,7.723-.591,11.584-.893.262-.02.528.02,1.1.047-.494.31-.744.5-1.019.636-3.124,1.564-4,3.32-3.377,6.743.1.522.161,1.05.221,1.578.134,1.179-.418,1.551-1.576,1.617-6.107.347-12.226.606-18.306,1.232a71.834,71.834,0,0,0-12.175,2.231,16.633,16.633,0,0,1-9.161-.028c-4.976-1.328-9.951-2.658-14.946-3.909-2.65-.664-4.4.676-4.541,3.4-.083,1.612-.015,3.231-.015,5.047-2.334-.116-4.5-.2-6.659-.34-2.334-.155-4.663-.361-6.995-.557-8.021-.676-15.979-1.685-23.281-5.4-6.449-3.279-9.662-8.719-9.674-15.858-.011-6.552.356-13.1.587-19.657.182-5.16.53-10.318.6-15.479.169-13.254.355-26.511.258-39.765-.042-5.829-.9-11.648-1.121-17.482-.225-6.012.06-12.058,4.414-16.828a25.94,25.94,0,0,1,6.3-5.05,98.648,98.648,0,0,1,21.953-8.591c7.817-2.2,15.7-4.165,23.481-6.5,8.332-2.5,13.031-8.386,14.683-16.817.284-1.448.486-2.913.745-4.49,1.2,1.488,2.284,2.9,3.439,4.262a41.807,41.807,0,0,0,9.772,8.109c4.318,2.727,8.9,4.575,14.148,4.059.739-.072,1.474-.192,2.208-.308,1.4-.222,2.107.478,1.874,1.9-.5,3.029-1.023,6.053-1.491,9.086a17.1,17.1,0,0,0-.015,2.328,17.6,17.6,0,0,1,10.145-1.432l.12.578-7.111,2.31,0,.553a19.682,19.682,0,0,0,4.49.339c2.886-.432,5.2.781,7.464,2.146a33.218,33.218,0,0,0,13.693,4.4c6.635.748,13.374,1.1,19.718,3.389a20.747,20.747,0,0,1,12.771,12.179c2.392,5.984,2.908,12.261,2.828,18.625,0,.374,0,.749.013,1.123,0,.086.082.17.142.286,1.337-1.712,2.557-3.506,4.019-5.074a19.812,19.812,0,0,1,3.915-3.2,2.4,2.4,0,0,1,3.538,1.364,15.105,15.105,0,0,1,1.5,5.142c.2,5.475.122,10.961.087,16.442-.014,2.125-.145,4.255-.322,6.375-.482,5.763-.956,11.526-1.545,17.278-.638,6.236-1.368,12.463-2.125,18.685-.384,3.154-.917,6.291-1.379,9.413l6.272,3.883-.2.4-4.569-1.149a44.775,44.775,0,0,1-1.586,5.586c-1.881,4.413-5.377,7.454-9.171,10.194A86.385,86.385,0,0,1,649.4,586.58c-7.067,2.471-14.2,4.834-21.448,6.677a123.355,123.355,0,0,1-16.932,2.766,130.972,130.972,0,0,1-16.417.875c-5.448-.091-10.991-.406-15.976-3.083a16.582,16.582,0,0,1-2.761-2.367l.311-.361c1.776.173,3.549.435,5.329.5,2.278.078,3.125-.575,3.947-2.71.058-.149.077-.311.13-.462,1.028-2.941,1.029-2.938,4.307-2.94,3.264,0,6.536.141,9.789-.046,4.55-.261,9.089-.738,13.628-1.18,3.957-.385,7.918-.771,11.858-1.3,6.944-.933,13.908-1.847,20.533-4.276a29.089,29.089,0,0,0,5.062-2.647,4.879,4.879,0,0,0,1.69-5c-.24-.806-.588-1.581-.907-2.424M600.39,444.942l0-.626c-13.43-3.59-26.859-1.608-40.294.255a3.113,3.113,0,0,0,1.661.282c3.875-.19,7.747-.471,11.623-.559,2.443-.055,4.892.164,7.338.279,2.338.11,4.675.32,7.013.352,4.22.059,8.441.017,12.662.017m-28.125,49.985a5.809,5.809,0,0,0-5.811-6.073,5.953,5.953,0,0,0-5.867,5.88,6.188,6.188,0,0,0,5.774,5.987c3.038.015,6.276-2.879,5.9-5.793m81.929-1.023a5.928,5.928,0,0,0-5.993-5.949c-2.92-.1-6,3.155-5.815,6.089a6.019,6.019,0,0,0,6.188,5.74,5.741,5.741,0,0,0,5.62-5.88" transform="translate(-126.145 -103.498)" fill="#fff"/>
    <path id="Path_808" data-name="Path 808" d="M456.748,660.978c.932.107,1.862.282,2.8.308,6.334.18,12.667.417,18.679,2.72,2.68,1.027,5.3,2.225,7.92,3.394a22.361,22.361,0,0,0,9,1.893c4.8.05,9.616.014,14.4.346,5.875.407,11.734,1.092,17.586,1.772,6.631.771,13.261,1.567,19.864,2.539,7.236,1.064,14.433,2.4,21.665,3.487a37.194,37.194,0,0,0,6.005.183c1.43-.018,1.745-.985,1.844-2.287a41.5,41.5,0,0,1,.92-6.918,7.607,7.607,0,0,1,5.955-5.621,31.476,31.476,0,0,1,11.272-.351c9.837,1.045,19.4.4,28.084-4.993,6.519-4.05,13.129-3.139,19.7-.36,3.032,1.282,5.881,3,8.816,4.513.325.167.674.291.8.343.2-.91.137-2.005.651-2.615a4.922,4.922,0,0,1,2.484-1.157c3.527-.905,7.079-1.4,10.6.021a8.238,8.238,0,0,1,1.958,1.034c2.827,2.179,1.889,5.313-1.151,6.387a12.778,12.778,0,0,1-3.893.673,88.278,88.278,0,0,0-28.248,5.172c-3.595,1.312-6.768,3.963-9.9,6.31-7.191,5.384-14.046,11.276-22.124,15.33a58.377,58.377,0,0,1-15.508,5.255c-8.456,1.576-16.9,3.191-25.359,4.766-7.6,1.415-15.185,2.954-22.822,4.141-5.189.806-10.449,1.227-15.693,1.589-6.215.43-12.453.946-18.669.826-10.73-.207-21.474-.779-31.909-3.624a89.311,89.311,0,0,1-10.963-3.821,7.077,7.077,0,0,0-4.973-.451c-4.34,1.188-8.7,2.378-13.119,3.173a26.691,26.691,0,0,1-15.917-1.64c-4.9-2.2-7.444-6.228-8.1-11.4-1.02-8.073.233-15.775,4.9-22.582,2.873-4.19,7.22-6.429,12.121-7.453,7.266-1.518,14.547-2.975,21.849-4.31,9.285-1.7,18.578-3.36,27.9-4.819,7.073-1.106,14.112-2.741,21.356-2.246,2.769.189,5.51.6,7.841,2.265.5.355,1.073,1.11,1.006,1.6a1.968,1.968,0,0,1-1.382,1.266,38.9,38.9,0,0,1-7.881.563c-6.647-.584-13.118-.715-19.285,2.518a18.5,18.5,0,0,1-10.487,1.87c-5.723-.51-11.492-.543-17.243-.684a17.587,17.587,0,0,0-3.394.571q.021.254.044.506" transform="translate(-104.222 -161.756)" fill="#fff"/>
    <path id="Path_809" data-name="Path 809" d="M588.464,573.4c-2.2-1.5-2.928-4.082-3.5-6.682-.847-3.823-1.821-7.621-1.192-11.64.871-5.56,4.37-9.02,9.312-10.573,4.488-1.411,8.015-4.309,12.106-6.273a100.1,100.1,0,0,1,10.564-4.826c2.316-.8,4.972-.641,7.483-.79a3.249,3.249,0,0,1,1.679.72c1.631,1.057,2.929.851,4.594-.11a6.924,6.924,0,0,1,4.061-1.1,37.946,37.946,0,0,1,7.674,2.1,6.516,6.516,0,0,1,2.847,2.376,25.549,25.549,0,0,1,4.377,18.345,37.259,37.259,0,0,1-3.98,12.542,3.933,3.933,0,0,0-.19,3.747A44.79,44.79,0,0,1,647.731,592a23.872,23.872,0,0,1-2.316,9.166c-3.64-3.914-8.109-3.716-12.7-3.144-2.472.308-4.96.516-7.448.645-3.3.173-6.6.174-9.9.339a70.94,70.94,0,0,1-18.967-1.98,21.587,21.587,0,0,0-6.523-.04,1.962,1.962,0,0,1-2.12-.865c-3.366-4.536-3.657-9.558-2.222-14.753.743-2.689,1.919-5.259,2.929-7.963" transform="translate(-145.132 -132.33)" fill="#fff"/>
    <path id="Path_810" data-name="Path 810" d="M613.7,389.4l.337,2.43c-1.414-.415-2.661-.748-3.886-1.147-1.863-.608-3.733-1.2-5.56-1.908-4.246-1.636-6.01-5.061-6.749-9.308-.79-4.548-1.823-9.053-2.62-13.6a32.7,32.7,0,0,1-.21-10.212,27.833,27.833,0,0,0-.244-4.92c-.2-4.624-.554-9.249-.5-13.871a6.263,6.263,0,0,1,3-5.318,14.118,14.118,0,0,0,3.672-4.5,8.756,8.756,0,0,1,4.563-4.2,10.319,10.319,0,0,0,3.79-2.534,3.545,3.545,0,0,1,3.858-1.207,7.682,7.682,0,0,0,5.826-.524,8.89,8.89,0,0,1,7.7.11,9.518,9.518,0,0,0,8.466-.109,6.278,6.278,0,0,1,7.243,1.3c1.941,1.772,1.8,4.2,1.32,6.577-.59,2.906-2.743,4.619-4.943,6.231a17.37,17.37,0,0,0-7.1,13.029,107.57,107.57,0,0,0-.32,11.019,26,26,0,0,0,.772,5.483c.561,2.445-.484,3.968-2.968,4.08a11.289,11.289,0,0,1-6.185-1.183c-.424-.233-1.18.138-1.784.231a17.92,17.92,0,0,0,1.089,1.669c.113.141.507.06.772.074,1.617.086,3.3.048,3.615,2.054l1.7-1.573a16.131,16.131,0,0,1,2.493,2.929c.292.557-.159,1.626-.52,2.338-.133.261-1.044.348-1.487.193-2.265-.793-4.367-.085-6.513.5-1.489.4-3.028,1.128-4.426-.364a1.294,1.294,0,0,0-1.264.107,2.61,2.61,0,0,0-.673,1.632,1.437,1.437,0,0,0,.939,1.053,12.824,12.824,0,0,0,2.669-.336,4.706,4.706,0,0,1,.6,1.51c.183,3.127,2.2,3.545,4.913,3.028.678-.128,1.347-.307,2.017-.474a7.285,7.285,0,0,1,7.781,3.855c.886,1.926.176,3.589-.853,5.095a8.116,8.116,0,0,1-6.509,3.5,84.285,84.285,0,0,1-10.706-.6,2.681,2.681,0,0,1-2.735-2.292l-.379.152m-13.348-47.049c.714-.471,1.071-.695,1.414-.937.217-.152.4-.35.622-.5,4.083-2.731,8.392-4.138,13.224-2.14.469.193.793.734,1.185,1.114a5.1,5.1,0,0,1-1.517.855,25.342,25.342,0,0,1-2.718.048c-4.286.219-7.173,2.619-9.753,6.274l1.842-.807c2,4.369,6.02,5.3,10.062,5.655a13.554,13.554,0,0,0,9.316-3.116,2.344,2.344,0,0,0,.926-1.761,41.418,41.418,0,0,0-1.761-7.86c-1.03-2.692-2.944-5.056-6.147-5.1a34.268,34.268,0,0,0-8.682.878c-3.7.919-6.43,3.319-8.013,7.4m13.674,26,.319.345,2.921-2.225,2.847,1.775.337-.368c-3.685-2.663-.144-4.884.5-7.64l-6.926,8.113" transform="translate(-147.791 -79.026)" fill="#fff"/>
    <path id="Path_811" data-name="Path 811" d="M776,674.086c-3.614-.55-7.212-1.259-10.844-1.612-5.711-.555-11.454-.778-17.161-1.363a6.4,6.4,0,0,1-3.377-1.9,1.826,1.826,0,0,1,.992-3.175c2.951-.618,5.952-1.021,8.943-1.425,3.992-.54,7.987-1.092,12-1.464,5.291-.491,10.567-1.012,15.924-.464a74.159,74.159,0,0,1,16.767,3.687,16.945,16.945,0,0,1,4.565,2.517c2.508,1.893,1.669,4.025-.371,5.545a59.11,59.11,0,0,1-8.176,4.936c-7.005,3.631-14.183,6.907-21.961,8.519a116.948,116.948,0,0,1-12.749,2c-6.509.611-13.056.816-19.578,1.313a221.085,221.085,0,0,0-34.173,5.622q-5.263,1.248-10.582,2.253a6.581,6.581,0,0,1-2.212-.373,6.357,6.357,0,0,1,1-2.017c1.292-1.184,2.753-2.183,4.133-3.273,4.832-3.814,9.468-7.914,14.535-11.384a55.354,55.354,0,0,1,22.6-8.773,73.2,73.2,0,0,1,20.224-.116c2.744.317,5.51.439,8.267.633q4.775.336,9.552.64c.53.034,1.064,0,1.6,0l.09-.335" transform="translate(-172.597 -164.75)" fill="#fff"/>
    <path id="Path_812" data-name="Path 812" d="M533.484,664.09a7.313,7.313,0,0,0,.27-1.608c-.129-1.35.627-1.7,1.75-1.632a39.594,39.594,0,0,0,4.127.28c2.7-.128,5.4-.371,8.083-.673,3.993-.449,7.968-1.086,11.967-1.459a27.935,27.935,0,0,1,7.448-.074c3.994.723,7.878,2.032,11.823,3.037,2.875.732,5.811,1.271,8.169,3.276a9.811,9.811,0,0,1,1.79,1.565c.515.729,1.16,1.717,1.016,2.448a2.666,2.666,0,0,1-2.023,1.424c-2.953.233-5.928.286-8.893.269a55.148,55.148,0,0,1-5.558-.418c-4.369-.469-8.734-.98-13.1-1.481-3.84-.44-7.668-1.057-11.52-1.294-5.791-.358-11.6-.464-17.4-.654-3.888-.127-7.782-.384-11.663-.264-3.108.1-6.2.747-9.3.992a12.583,12.583,0,0,1-3.112-.536c.195-1,.11-2.181.633-2.956a12.936,12.936,0,0,1,8.171-5.128c5.321-1.25,10.466-.864,15.037,2.518a21.754,21.754,0,0,1,2.285,2.37" transform="translate(-126.178 -163.779)" fill="#fff"/>
    <path id="Path_813" data-name="Path 813" d="M702.5,595.359c.3-5.682.6-11.08.869-16.479.131-2.606.133-5.22.345-7.819q.485-5.935,1.194-11.851a70.259,70.259,0,0,1,1.327-8.63,33.463,33.463,0,0,1,5.165-10.868,7.575,7.575,0,0,1,.413,1.443q.193,4.626.325,9.257c.122,4.475.2,8.951.325,13.426.078,2.819.163,5.639.317,8.454s.568,5.609.539,8.411a15.544,15.544,0,0,1-1,5.739c-1.83,4.369-5.742,6.605-9.821,8.918" transform="translate(-174.71 -134.225)" fill="#fff"/>
    <path id="Path_814" data-name="Path 814" d="M573.218,595.047c-4.207-2.767-7.928-5.386-8.1-10.544-.131-3.806.119-7.626.215-11.439.089-3.518.211-7.034.3-10.551.113-4.584.192-9.169.312-13.753.072-2.768.183-5.534.307-8.3a2.071,2.071,0,0,1,.729-1.337c1.23,2.19,2.608,4.312,3.656,6.586a26.5,26.5,0,0,1,2.3,11.458c-.024,2.7-.038,5.4-.011,8.1q.135,13.69.3,27.381c.007.633,0,1.267,0,2.4" transform="translate(-140.533 -134.079)" fill="#fff"/>
    <path id="Path_815" data-name="Path 815" d="M651.972,367.674q0-.721,0-1.443c0-2.6.686-3.179,3.248-2.91a20.454,20.454,0,0,0,4.819.255c3.17-.436,5.708,2.754,6.72,5.591a8.932,8.932,0,0,1,.1,4.823,20.3,20.3,0,0,1-5.348,9.475c-1.245,1.277-1.923,1.22-3.249-.028-3.349-3.152-6.292-10.532-6.287-15.764" transform="translate(-162.144 -90.342)" fill="#fff"/>
    <path id="Path_816" data-name="Path 816" d="M590.166,362.9c-3.4-.294-4.891,1.1-5.08,4.6a29.614,29.614,0,0,0,2.308,12.285c1.092,2.852,1.965,5.788,2.887,8.7a7.967,7.967,0,0,0,3.3,4.458,5.515,5.515,0,0,1,1.824,3.625,16.656,16.656,0,0,1-.889,8.175c-.673,1.693-1.855,1.964-3.174.7-2.658-2.546-3.441-5.938-3.969-9.349-.736-4.754-.833-9.611-2.538-14.2a51.793,51.793,0,0,1-2.482-7.375,26.15,26.15,0,0,1,.473-13.057c.947-3.1,2.938-3.98,5.907-2.867,1.449.543,1.745,1.4,1.43,4.3" transform="translate(-144.68 -89.069)" fill="#fff"/>
    <path id="Path_817" data-name="Path 817" d="M571.187,639.157c-.3-2.54,1.595-3.687,3.9-2.748a14.055,14.055,0,0,1,6.735,5.161c1.633,2.506,3.976,3.432,6.686,3.748,1,.117,1.294.489,1.756,1.369a17.522,17.522,0,0,0,3.14,3.96c.848.862,1.4,1.859.751,2.767a3.166,3.166,0,0,1-2.494,1.14,31.362,31.362,0,0,1-16.762-7.377,11.864,11.864,0,0,1-3.715-8.021" transform="translate(-142.045 -158.192)" fill="#fff"/>
    <path id="Path_818" data-name="Path 818" d="M595.216,392.9c-1.778-1.2-2.068-3.033-2.587-4.767a42.184,42.184,0,0,0-1.978-6.15,25.442,25.442,0,0,1-2.7-12.128c.055-1.41.394-2.838,1.916-3.38a2.91,2.91,0,0,1,1.935.267c.2.091.14.9.107,1.374a41.388,41.388,0,0,0,.714,11.8c.943,4.311,1.738,8.654,2.6,12.984" transform="translate(-146.216 -91.121)" fill="#fff"/>
    <path id="Path_819" data-name="Path 819" d="M652.1,632.032c-.237-1.517-.406-2.451-.524-3.391-.319-2.541.611-4.04,3.093-4.994.545-.21,1.114-.354,1.67-.536,2.624-.862,4.848.76,4.917,3.585.067,2.791.088,2.86-2.59,3.675-2.133.649-4.326,1.1-6.566,1.66" transform="translate(-162.029 -154.908)" fill="#fff"/>
    <path id="Path_820" data-name="Path 820" d="M633.1,397.8c-2.512,0-3.893-1.841-3.277-3.692a1.336,1.336,0,0,1,.72-.747c2.185-.751,4.342-1.589,6.757-.98,2.08.525,3.546,1.431,3.264,2.409-.489,1.693-1.965,1.944-3.508,2.146a39.842,39.842,0,0,0-3.956.865" transform="translate(-156.599 -97.532)" fill="#fff"/>
    <path id="Path_821" data-name="Path 821" d="M686.977,623.767c-6.66,2.02-13.186,4.612-20.353,4.766v-2.663l20.187-2.947c.055.282.111.562.166.843" transform="translate(-165.787 -154.919)" fill="#fff"/>
    <path id="Path_822" data-name="Path 822" d="M668.557,351.281a18.766,18.766,0,0,1-3.172-1.51,12.18,12.18,0,0,0-7.936-2.382c-.82.035-2.307-.419-2.379-.838-.232-1.361,1.187-1.411,2.085-1.581a32.841,32.841,0,0,1,4.58-.461c3.255-.15,6.44,3.634,6.823,6.772" transform="translate(-162.908 -85.677)" fill="#fff"/>
    <path id="Path_823" data-name="Path 823" d="M607.49,641.382a31.443,31.443,0,0,1-1.379,3.764,2.008,2.008,0,0,1-1.5.974,46.094,46.094,0,0,1-5.81-.719.994.994,0,0,1-.577-1.8,5.173,5.173,0,0,1,2.4-1.685c2.069-.362,4.2-.355,6.863-.535" transform="translate(-148.677 -159.51)" fill="#fff"/>
    <path id="Path_824" data-name="Path 824" d="M640.567,518.861a3.048,3.048,0,0,1,2.977,3.034,3.3,3.3,0,0,1-3.205,3.125c-1.31.135-3.068-1.775-3.1-3.161a3.393,3.393,0,0,1,3.325-3" transform="translate(-158.48 -129.039)" fill="#fff"/>
    <path id="Path_825" data-name="Path 825" d="M655.888,356.735c2.74,2.883,5.519,2.058,6.811-2.073l3.957.54a6.358,6.358,0,0,1-3.776,3.058,30.653,30.653,0,0,1-5.477.85c-2.2.112-2.3-.149-1.515-2.375" transform="translate(-163.006 -88.203)" fill="#fff"/>
    <path id="Path_826" data-name="Path 826" d="M666.184,353.073l-10.137-.965c.119-1.192,1.283-1.382,2.364-1.524a9.2,9.2,0,0,1,6.489,1.592c.4.266.783.546,1.284.9" transform="translate(-163.157 -87.169)" fill="#fff"/>
    <path id="Path_827" data-name="Path 827" d="M640.807,515.9c-.7-.133-2.083.371-1.854-1.067a3.559,3.559,0,0,1,1.843-2c.629-.337,2.116,1.167,2.166,1.975.047.783-.534,1.092-2.155,1.091" transform="translate(-158.899 -127.527)" fill="#fff"/>
    <path id="Path_828" data-name="Path 828" d="M634.912,521.106c-1.049,1.011.923,3.3-1.642,2.975-.66-.083-1.755-1.506-1.613-2.036.205-.766,1.324-1.328,2.137-1.845.123-.078.7.558,1.118.906" transform="translate(-157.088 -129.371)" fill="#fff"/>
    <path id="Path_829" data-name="Path 829" d="M640.258,532.5a12.542,12.542,0,0,1-1.312-2.307c-.125-.376.278-1.309.576-1.373a7.056,7.056,0,0,1,2.744-.017c.246.047.607,1.051.443,1.388a10.393,10.393,0,0,1-1.539,1.928l-.911.382" transform="translate(-158.898 -131.48)" fill="#fff"/>
    <path id="Path_830" data-name="Path 830" d="M646.992,521.735c.43-.543.757-1.344,1.315-1.566.748-.3,2.09,1.105,2.1,1.968a2.224,2.224,0,0,1-2.073,2.026c-1.666-.092-.781-1.374-1.339-2.428" transform="translate(-160.905 -129.354)" fill="#fff"/>
    <path id="Path_831" data-name="Path 831" d="M633.613,527.432l2.714-.25c-.078.85-.156,1.7-.236,2.563-1.736.073-2.345-.753-2.479-2.313" transform="translate(-157.578 -131.109)" fill="#fff"/>
    <path id="Path_832" data-name="Path 832" d="M633.554,517.7c.092-1.824.805-2.629,1.983-2.446.391.061,1.02,1.506.806,2.007-.713,1.675-1.723-.5-2.79.44" transform="translate(-157.563 -128.136)" fill="#fff"/>
    <path id="Path_833" data-name="Path 833" d="M648.275,517.293l-2.483.459-.387-.435,1.267-2.188,1.9,1.657-.3.507" transform="translate(-160.51 -128.111)" fill="#fff"/>
    <path id="Path_834" data-name="Path 834" d="M646.289,530.087c-.165-.964-.312-1.815-.458-2.666h2.4c.464,1.75-.723,2.095-1.942,2.666" transform="translate(-160.616 -131.168)" fill="#fff"/>
    <path id="Path_835" data-name="Path 835" d="M617.891,453.6c-4.221,0-8.442.042-12.661-.017-2.339-.032-4.675-.243-7.013-.352-2.446-.116-4.9-.334-7.338-.279-3.877.088-7.749.369-11.623.559a3.113,3.113,0,0,1-1.661-.283c13.435-1.863,26.864-3.845,40.294-.255l0,.626" transform="translate(-143.646 -112.156)"/>
    <path id="Path_836" data-name="Path 836" d="M589.927,518.989c.373,2.915-2.865,5.809-5.9,5.794a6.188,6.188,0,0,1-5.775-5.987,5.953,5.953,0,0,1,5.867-5.88,5.809,5.809,0,0,1,5.811,6.073m-5.8,4.651c3.035.065,4.867-2.8,4.935-4.868.078-2.377-2.575-4.859-4.98-4.844s-5.136,2.578-4.937,4.9a5.013,5.013,0,0,0,4.982,4.814" transform="translate(-143.807 -127.561)"/>
    <path id="Path_837" data-name="Path 837" d="M698.933,517.668a5.74,5.74,0,0,1-5.62,5.88,6.017,6.017,0,0,1-6.187-5.739c-.188-2.935,2.895-6.193,5.814-6.089a5.927,5.927,0,0,1,5.993,5.948m-5.844-4.952c-2.3-.061-4.926,2.566-4.953,4.951-.026,2.23,2.549,4.921,4.805,5.022,2.237.1,5.18-2.548,5.08-4.852a5.272,5.272,0,0,0-4.932-5.121" transform="translate(-170.884 -127.263)"/>
    <path id="Path_838" data-name="Path 838" d="M602.37,347.752c1.584-4.079,4.312-6.479,8.013-7.4a34.24,34.24,0,0,1,8.682-.877c3.2.047,5.118,2.41,6.147,5.1a41.415,41.415,0,0,1,1.761,7.859,2.344,2.344,0,0,1-.926,1.761,13.546,13.546,0,0,1-9.316,3.116c-4.041-.352-8.059-1.285-10.062-5.655l-1.842.807c2.579-3.655,5.466-6.055,9.753-6.274a25.359,25.359,0,0,0,2.718-.048,5.107,5.107,0,0,0,1.518-.855c-.391-.38-.717-.92-1.185-1.114-4.833-2-9.143-.591-13.224,2.14-.22.147-.406.345-.622.5-.344.242-.7.466-1.414.937m4.81,3.689a12.537,12.537,0,0,0,.777,1.054c2.37,2.454,5.408,2.945,8.62,2.886,2.132-.039,2.244-.242,1.38-2.311-2.314,2.264-5.532,2.516-6.821-2.19l-3.956.561m10.748-1.96c-.443-1.162-.883-1.5-2.261-1.656-2.864-.328-6.551.945-7.711,2.612,1.6-.207,3.259-.464,4.924-.625s3.323-.222,5.049-.331" transform="translate(-149.808 -84.426)"/>
    <path id="Path_839" data-name="Path 839" d="M620.571,382.411,627.5,374.3c-.646,2.756-4.187,4.977-.5,7.64l-.337.368-2.847-1.775-2.921,2.225-.319-.345" transform="translate(-154.334 -93.087)"/>
    <path id="Path_840" data-name="Path 840" d="M584.423,523.974a5.012,5.012,0,0,1-4.982-4.814c-.2-2.32,2.531-4.882,4.937-4.9s5.058,2.466,4.98,4.843c-.068,2.073-1.9,4.934-4.935,4.869m-3.587-4.947a3.615,3.615,0,0,0,2.676,3.4,2.975,2.975,0,0,0,3.51-1.158c.232-.31.065-.92.081-1.392-.381.149-.866.2-1.125.463-1.165,1.2-2.466,1.242-3.1-.144-.276-.606.128-1.514.193-2.288.044-.52.037-1.044.053-1.566-.449.2-1.059.279-1.311.622a11.271,11.271,0,0,0-.977,2.064" transform="translate(-144.103 -127.896)" fill="#fff"/>
    <path id="Path_841" data-name="Path 841" d="M693.425,513.047a5.273,5.273,0,0,1,4.932,5.122c.1,2.3-2.844,4.951-5.081,4.851-2.255-.1-4.83-2.792-4.805-5.022.027-2.385,2.655-5.012,4.954-4.951m.249,8.58A19.412,19.412,0,0,0,696,520.194c.261-.21.207-.81.3-1.231-.412.069-.932,0-1.218.233-.893.713-1.764,1.288-2.807.368-1.074-.949-1.087-1.928-.064-3.007.223-.236-.014-.908-.04-1.379-.4.15-.919.19-1.171.471a3.127,3.127,0,0,0-.827,3.5,3.959,3.959,0,0,0,3.507,2.479" transform="translate(-171.221 -127.593)" fill="#fff"/>
    <path id="Path_842" data-name="Path 842" d="M608.772,355.217l3.956-.561c1.289,4.706,4.507,4.454,6.821,2.19.864,2.069.752,2.272-1.38,2.311-3.212.059-6.249-.431-8.62-2.886a12.52,12.52,0,0,1-.777-1.054" transform="translate(-151.4 -88.202)" fill="#fff"/>
    <path id="Path_843" data-name="Path 843" d="M619.777,352.229c-1.726.109-3.392.172-5.049.331s-3.32.418-4.924.625c1.161-1.667,4.847-2.941,7.711-2.612,1.379.158,1.818.494,2.261,1.656" transform="translate(-151.657 -87.174)" fill="#fff"/>
    <path id="Path_844" data-name="Path 844" d="M581.3,519.715a11.256,11.256,0,0,1,.977-2.064c.252-.343.862-.423,1.311-.622-.016.521-.008,1.046-.053,1.566-.065.774-.47,1.682-.193,2.288.634,1.386,1.935,1.341,3.1.144.259-.267.745-.314,1.125-.463-.017.473.151,1.082-.081,1.392a2.975,2.975,0,0,1-3.51,1.158,3.615,3.615,0,0,1-2.676-3.4" transform="translate(-144.568 -128.584)"/>
    <path id="Path_845" data-name="Path 845" d="M694.153,522.332a3.96,3.96,0,0,1-3.507-2.479,3.127,3.127,0,0,1,.827-3.5c.252-.281.773-.321,1.171-.471.026.471.263,1.143.04,1.379-1.023,1.08-1.01,2.059.064,3.008,1.043.92,1.914.345,2.807-.368.286-.228.805-.164,1.218-.233-.09.421-.037,1.021-.3,1.231a19.428,19.428,0,0,1-2.322,1.433" transform="translate(-171.7 -128.298)"/>
    <path id="Path_846" data-name="Path 846" d="M641.536,312.282c-.513-.8-1.451-1.616-1.437-2.41a1.739,1.739,0,0,1,2.29-1.58,3.474,3.474,0,0,1,1.917,1.932c.281.806-1.388,1.936-2.77,2.059" transform="translate(-159.191 -76.649)"/>
    <path id="Path_847" data-name="Path 847" d="M661.026,313.036c-1.274-.437-1.981-.836-1.859-2.03a1.276,1.276,0,0,1,1.83-1.171c.687.264,1.15,1.11,1.712,1.7l-1.683,1.5" transform="translate(-163.929 -77.027)"/>
    <path id="Path_848" data-name="Path 848" d="M622.222,312.94c-.412-.6-1.1-1.17-1.177-1.81-.146-1.25.974-1.672,1.9-1.539.59.085,1.587,1.062,1.5,1.4-.2.745-.965,1.338-1.5,1.993l-.724-.044" transform="translate(-154.449 -76.988)"/>
  </g>
</svg>
