<svg xmlns="http://www.w3.org/2000/svg" width="23.133" height="23.133" viewBox="0 0 23.133 23.133">
  <g id="noun-link-1702751" transform="translate(0 17.35) rotate(-45)">
    <path id="Path_133" data-name="Path 133" d="M4.089,8.179A4.089,4.089,0,1,1,4.089,0H9.931A4.093,4.093,0,0,1,14.021,4.09h0a.584.584,0,1,1-1.169,0A2.9,2.9,0,0,0,9.931,1.168H4.089a2.921,2.921,0,1,0,0,5.842H9.931a.584.584,0,1,1,0,1.169Zm10.516,0A4.093,4.093,0,0,1,10.516,4.09h0a.584.584,0,1,1,1.169,0A2.9,2.9,0,0,0,14.6,7.01h5.842a2.921,2.921,0,0,0,0-5.842H14.6A.584.584,0,1,1,14.6,0h5.842a4.089,4.089,0,0,1,0,8.179H14.6Z" transform="translate(0 0)"/>
  </g>
</svg>
